M48
;DRILL file {KiCad 5.0.2-5.fc29} date Sun 24 May 2020 09:12:17 AM CDT
;FORMAT={-:-/ absolute / inch / decimal}
FMAT,2
INCH,TZ
T1C0.0157
T2C0.0315
T3C0.0787
T4C0.0827
T5C0.0906
T6C0.1181
%
G90
G05
T1
X3.7799Y-3.6386
X4.7878Y-3.4929
X5.5555Y-3.4988
X5.648Y-2.7331
X6.2839Y-3.4457
X7.0693Y-2.7409
X7.0713Y-2.8118
T2
X6.2287Y-2.5795
X6.2287Y-2.8795
X7.3272Y-2.4575
X7.3272Y-2.5362
X7.3272Y-2.615
X7.3272Y-2.6937
X7.3272Y-2.7724
X7.3272Y-2.8512
X7.3272Y-2.9299
X7.3272Y-3.0087
X7.3272Y-3.0874
X6.3685Y-2.5795
X6.3685Y-2.8795
X5.9449Y-2.5795
X5.9449Y-2.8795
X6.7835Y-2.5795
X6.7835Y-2.8795
X6.6441Y-2.5795
X6.6441Y-2.8795
X4.9689Y-2.5795
X4.9689Y-2.8795
X5.4138Y-2.5795
X5.4138Y-2.8795
X6.5063Y-2.5795
X6.5063Y-2.8795
X5.1185Y-2.5795
X5.1185Y-2.8795
X5.2661Y-2.5795
X5.2661Y-2.8795
X6.0866Y-2.5795
X6.0866Y-2.8795
T3
X5.6496Y-2.4213
X7.7165Y-2.4213
T4
X3.5827Y-3.7894
X5.4724Y-3.7894
X7.7165Y-3.7894
T5
X4.5669Y-2.815
X6.1811Y-3.2874
T6
X5.9449Y-3.1496
T0
M30
