G04 #@! TF.GenerationSoftware,KiCad,Pcbnew,5.0.2-5.fc29*
G04 #@! TF.CreationDate,2020-05-24T09:12:21-05:00*
G04 #@! TF.ProjectId,coleco_to_nes_selectable_v4,636f6c65-636f-45f7-946f-5f6e65735f73,rev?*
G04 #@! TF.SameCoordinates,Original*
G04 #@! TF.FileFunction,Copper,L2,Bot*
G04 #@! TF.FilePolarity,Positive*
%FSLAX46Y46*%
G04 Gerber Fmt 4.6, Leading zero omitted, Abs format (unit mm)*
G04 Created by KiCad (PCBNEW 5.0.2-5.fc29) date Sun 24 May 2020 09:12:21 AM CDT*
%MOMM*%
%LPD*%
G01*
G04 APERTURE LIST*
G04 #@! TA.AperFunction,SMDPad,CuDef*
%ADD10R,2.750000X1.350000*%
G04 #@! TD*
G04 #@! TA.AperFunction,SMDPad,CuDef*
%ADD11R,2.500000X1.350000*%
G04 #@! TD*
G04 #@! TA.AperFunction,ComponentPad*
%ADD12R,1.350000X1.350000*%
G04 #@! TD*
G04 #@! TA.AperFunction,ComponentPad*
%ADD13O,1.350000X1.350000*%
G04 #@! TD*
G04 #@! TA.AperFunction,ComponentPad*
%ADD14R,1.600000X1.600000*%
G04 #@! TD*
G04 #@! TA.AperFunction,ComponentPad*
%ADD15O,1.600000X1.600000*%
G04 #@! TD*
G04 #@! TA.AperFunction,SMDPad,CuDef*
%ADD16R,1.600000X3.100000*%
G04 #@! TD*
G04 #@! TA.AperFunction,ViaPad*
%ADD17C,2.200000*%
G04 #@! TD*
G04 #@! TA.AperFunction,ViaPad*
%ADD18C,2.100000*%
G04 #@! TD*
G04 #@! TA.AperFunction,ViaPad*
%ADD19C,2.400000*%
G04 #@! TD*
G04 #@! TA.AperFunction,ViaPad*
%ADD20C,3.100000*%
G04 #@! TD*
G04 #@! TA.AperFunction,ViaPad*
%ADD21C,0.800000*%
G04 #@! TD*
G04 #@! TA.AperFunction,Conductor*
%ADD22C,0.250000*%
G04 #@! TD*
G04 APERTURE END LIST*
D10*
G04 #@! TO.P,J1,*
G04 #@! TO.N,*
X187885000Y-78420000D03*
X187885000Y-76420000D03*
X187885000Y-74420000D03*
X187885000Y-72420000D03*
X187885000Y-70420000D03*
X187885000Y-68420000D03*
X187885000Y-66420000D03*
X187885000Y-64420000D03*
D11*
X188020000Y-62420000D03*
D12*
G04 #@! TO.P,J1,1*
G04 #@! TO.N,Net-(D11-Pad2)*
X186110000Y-62420000D03*
D13*
G04 #@! TO.P,J1,2*
G04 #@! TO.N,Net-(D12-Pad2)*
X186110000Y-64420000D03*
G04 #@! TO.P,J1,3*
G04 #@! TO.N,Net-(D1-Pad1)*
X186110000Y-66420000D03*
G04 #@! TO.P,J1,4*
G04 #@! TO.N,Net-(D14-Pad2)*
X186110000Y-68420000D03*
G04 #@! TO.P,J1,5*
G04 #@! TO.N,Net-(Button-\002A1-Pad2)*
X186110000Y-70420000D03*
G04 #@! TO.P,J1,6*
G04 #@! TO.N,Net-(D8-Pad1)*
X186110000Y-72420000D03*
G04 #@! TO.P,J1,7*
G04 #@! TO.N,Net-(J1-Pad7)*
X186110000Y-74420000D03*
G04 #@! TO.P,J1,8*
G04 #@! TO.N,Net-(Button-Side-L1-Pad1)*
X186110000Y-76420000D03*
G04 #@! TO.P,J1,9*
G04 #@! TO.N,Net-(J1-Pad9)*
X186110000Y-78420000D03*
G04 #@! TD*
D14*
G04 #@! TO.P,D9,1*
G04 #@! TO.N,Net-(D8-Pad1)*
X172300000Y-65520000D03*
D15*
G04 #@! TO.P,D9,2*
G04 #@! TO.N,Net-(Button-Side-L1-Pad2)*
X172300000Y-73140000D03*
G04 #@! TD*
D14*
G04 #@! TO.P,D8,1*
G04 #@! TO.N,Net-(D8-Pad1)*
X168760000Y-65520000D03*
D15*
G04 #@! TO.P,D8,2*
G04 #@! TO.N,Net-(Button-Side-R1-Pad2)*
X168760000Y-73140000D03*
G04 #@! TD*
D14*
G04 #@! TO.P,D4,1*
G04 #@! TO.N,Net-(D12-Pad2)*
X161760000Y-65520000D03*
D15*
G04 #@! TO.P,D4,2*
G04 #@! TO.N,Net-(D-Down1-Pad2)*
X161760000Y-73140000D03*
G04 #@! TD*
D14*
G04 #@! TO.P,D2,1*
G04 #@! TO.N,Net-(D11-Pad2)*
X154600000Y-65520000D03*
D15*
G04 #@! TO.P,D2,2*
G04 #@! TO.N,Net-(D-Up1-Pad2)*
X154600000Y-73140000D03*
G04 #@! TD*
D14*
G04 #@! TO.P,D1,1*
G04 #@! TO.N,Net-(D1-Pad1)*
X151000000Y-65520000D03*
D15*
G04 #@! TO.P,D1,2*
G04 #@! TO.N,Net-(D-Left1-Pad2)*
X151000000Y-73140000D03*
G04 #@! TD*
D14*
G04 #@! TO.P,D3,1*
G04 #@! TO.N,Net-(D14-Pad2)*
X158210000Y-65520000D03*
D15*
G04 #@! TO.P,D3,2*
G04 #@! TO.N,Net-(D-Right1-Pad2)*
X158210000Y-73140000D03*
G04 #@! TD*
G04 #@! TO.P,D7,2*
G04 #@! TO.N,Net-(D14-Pad2)*
X165260000Y-73140000D03*
D14*
G04 #@! TO.P,D7,1*
G04 #@! TO.N,Net-(Button-1-Pad1)*
X165260000Y-65520000D03*
G04 #@! TD*
D15*
G04 #@! TO.P,D11,2*
G04 #@! TO.N,Net-(D11-Pad2)*
X137510000Y-73140000D03*
D14*
G04 #@! TO.P,D11,1*
G04 #@! TO.N,Net-(D11-Pad1)*
X137510000Y-65520000D03*
G04 #@! TD*
G04 #@! TO.P,D12,1*
G04 #@! TO.N,Net-(D12-Pad1)*
X133760000Y-65520000D03*
D15*
G04 #@! TO.P,D12,2*
G04 #@! TO.N,Net-(D12-Pad2)*
X133760000Y-73140000D03*
G04 #@! TD*
G04 #@! TO.P,D13,2*
G04 #@! TO.N,Net-(D1-Pad1)*
X130010000Y-73140000D03*
D14*
G04 #@! TO.P,D13,1*
G04 #@! TO.N,Net-(D13-Pad1)*
X130010000Y-65520000D03*
G04 #@! TD*
G04 #@! TO.P,D14,1*
G04 #@! TO.N,Net-(D14-Pad1)*
X126210000Y-65520000D03*
D15*
G04 #@! TO.P,D14,2*
G04 #@! TO.N,Net-(D14-Pad2)*
X126210000Y-73140000D03*
G04 #@! TD*
D16*
G04 #@! TO.P,SW1,8*
G04 #@! TO.N,Net-(D11-Pad1)*
X135320000Y-77575000D03*
G04 #@! TO.P,SW1,4*
G04 #@! TO.N,Net-(Button-\002A1-Pad1)*
X127700000Y-86465000D03*
G04 #@! TO.P,SW1,7*
G04 #@! TO.N,Net-(D12-Pad1)*
X132780000Y-77575000D03*
G04 #@! TO.P,SW1,3*
G04 #@! TO.N,Net-(Button-\002A1-Pad1)*
X130240000Y-86465000D03*
G04 #@! TO.P,SW1,6*
G04 #@! TO.N,Net-(D13-Pad1)*
X130240000Y-77575000D03*
G04 #@! TO.P,SW1,2*
G04 #@! TO.N,Net-(Button-\002A1-Pad1)*
X132780000Y-86465000D03*
G04 #@! TO.P,SW1,5*
G04 #@! TO.N,Net-(D14-Pad1)*
X127700000Y-77575000D03*
G04 #@! TO.P,SW1,1*
G04 #@! TO.N,Net-(Button-\002A1-Pad1)*
X135320000Y-86465000D03*
G04 #@! TD*
D17*
G04 #@! TO.N,*
X91000000Y-96250000D03*
X196000000Y-96250000D03*
X139000000Y-96250000D03*
D18*
X196000000Y-61500000D03*
X143500000Y-61500000D03*
D19*
X116000000Y-71500000D03*
X157000000Y-83500000D03*
D20*
X151000000Y-80000000D03*
D21*
G04 #@! TO.N,Net-(Button-\002A1-Pad2)*
X179610000Y-71420000D03*
X159610000Y-87520000D03*
G04 #@! TO.N,Net-(Button-\002A1-Pad1)*
X141110000Y-88870000D03*
G04 #@! TO.N,Net-(D-Down1-Pad2)*
X121610000Y-88720000D03*
X96010000Y-92420000D03*
G04 #@! TO.N,Net-(D14-Pad2)*
X179560000Y-69620000D03*
X143460000Y-69420000D03*
G04 #@! TD*
D22*
G04 #@! TO.N,Net-(Button-\002A1-Pad2)*
X160860000Y-75070000D02*
X159610000Y-76320000D01*
X173510000Y-75070000D02*
X160860000Y-75070000D01*
X159610000Y-76320000D02*
X159610000Y-87520000D01*
X179610000Y-71420000D02*
X177160000Y-71420000D01*
X177160000Y-71420000D02*
X173510000Y-75070000D01*
G04 #@! TO.N,Net-(Button-\002A1-Pad1)*
X127700000Y-90330000D02*
X127700000Y-86465000D01*
X128010000Y-90520000D02*
X127700000Y-90330000D01*
X141110000Y-88870000D02*
X137410000Y-88870000D01*
X137410000Y-88870000D02*
X135760000Y-90520000D01*
X130240000Y-90500000D02*
X130240000Y-86465000D01*
X130260000Y-90520000D02*
X128010000Y-90520000D01*
X130260000Y-90520000D02*
X130240000Y-90500000D01*
X132760000Y-90520000D02*
X132780000Y-90500000D01*
X132760000Y-90520000D02*
X130260000Y-90520000D01*
X132780000Y-90500000D02*
X132780000Y-86465000D01*
X135260000Y-90520000D02*
X135320000Y-90460000D01*
X135260000Y-90520000D02*
X132760000Y-90520000D01*
X135320000Y-90460000D02*
X135320000Y-86465000D01*
X135760000Y-90520000D02*
X135260000Y-90520000D01*
G04 #@! TO.N,Net-(D-Down1-Pad2)*
X121610000Y-88720000D02*
X117910000Y-92420000D01*
X117910000Y-92420000D02*
X96010000Y-92420000D01*
G04 #@! TO.N,Net-(D1-Pad1)*
X151760000Y-65270000D02*
X150710000Y-65270000D01*
G04 #@! TO.N,Net-(D11-Pad1)*
X136460000Y-65520000D02*
X137510000Y-65520000D01*
X135320000Y-66660000D02*
X136460000Y-65520000D01*
X135320000Y-77575000D02*
X135320000Y-66660000D01*
G04 #@! TO.N,Net-(D12-Pad1)*
X132010000Y-75005000D02*
X132010000Y-66220000D01*
X132710000Y-65520000D02*
X133760000Y-65520000D01*
X132780000Y-75775000D02*
X132010000Y-75005000D01*
X132010000Y-66220000D02*
X132710000Y-65520000D01*
X132780000Y-77575000D02*
X132780000Y-75775000D01*
G04 #@! TO.N,Net-(D13-Pad1)*
X128960000Y-65520000D02*
X130010000Y-65520000D01*
X128510000Y-65970000D02*
X128960000Y-65520000D01*
X130240000Y-75775000D02*
X128510000Y-74045000D01*
X128510000Y-74045000D02*
X128510000Y-65970000D01*
X130240000Y-77575000D02*
X130240000Y-75775000D01*
G04 #@! TO.N,Net-(D14-Pad1)*
X127260000Y-65520000D02*
X126210000Y-65520000D01*
X127700000Y-65960000D02*
X127260000Y-65520000D01*
X127700000Y-77575000D02*
X127700000Y-65960000D01*
G04 #@! TO.N,Net-(D14-Pad2)*
X158210000Y-65616430D02*
X158210000Y-65420000D01*
X165720471Y-73126901D02*
X158210000Y-65616430D01*
X158210000Y-66470000D02*
X158210000Y-65420000D01*
X155260000Y-69420000D02*
X158210000Y-66470000D01*
X143460000Y-69420000D02*
X155260000Y-69420000D01*
X169227372Y-69620000D02*
X166520470Y-72326902D01*
X179560000Y-69620000D02*
X169227372Y-69620000D01*
X166520470Y-72326902D02*
X165720471Y-73126901D01*
G04 #@! TD*
M02*
