G04 #@! TF.GenerationSoftware,KiCad,Pcbnew,5.0.2-5.fc29*
G04 #@! TF.CreationDate,2020-05-24T09:12:21-05:00*
G04 #@! TF.ProjectId,coleco_to_nes_selectable_v4,636f6c65-636f-45f7-946f-5f6e65735f73,rev?*
G04 #@! TF.SameCoordinates,Original*
G04 #@! TF.FileFunction,Profile,NP*
%FSLAX46Y46*%
G04 Gerber Fmt 4.6, Leading zero omitted, Abs format (unit mm)*
G04 Created by KiCad (PCBNEW 5.0.2-5.fc29) date Sun 24 May 2020 09:12:21 AM CDT*
%MOMM*%
%LPD*%
G01*
G04 APERTURE LIST*
%ADD10C,0.200000*%
G04 APERTURE END LIST*
D10*
X120010000Y-67520000D02*
X104010000Y-67520000D01*
X87010000Y-100020000D02*
X87010000Y-84020000D01*
X122010000Y-100020000D02*
X87010000Y-100020000D01*
X122010000Y-98020000D02*
X122010000Y-100020000D01*
X125010000Y-98020000D02*
X122010000Y-98020000D01*
X125010000Y-100020000D02*
X125010000Y-98020000D01*
X162010000Y-100020000D02*
X125010000Y-100020000D01*
X162010000Y-98020000D02*
X162010000Y-100020000D01*
X165010000Y-98020000D02*
X162010000Y-98020000D01*
X165010000Y-100020000D02*
X165010000Y-98020000D01*
X200010000Y-100020000D02*
X165010000Y-100020000D01*
X200010000Y-57520000D02*
X200010000Y-100020000D01*
X165010000Y-57520000D02*
X200010000Y-57520000D01*
X165010000Y-59520000D02*
X165010000Y-57520000D01*
X162010000Y-59520000D02*
X165010000Y-59520000D01*
X162010000Y-57520000D02*
X162010000Y-59520000D01*
X125010000Y-57520000D02*
X162010000Y-57520000D01*
X125010000Y-59520000D02*
X125010000Y-57520000D01*
X122010000Y-59520000D02*
X125010000Y-59520000D01*
X122010000Y-57520000D02*
X122010000Y-59520000D01*
X120010000Y-57520000D02*
X122010000Y-57520000D01*
X120010000Y-67520000D02*
X120010000Y-57520000D01*
X86970000Y-85980000D02*
G75*
G02X105470000Y-67480000I18500000J0D01*
G01*
M02*
