G04 #@! TF.GenerationSoftware,KiCad,Pcbnew,5.0.2-5.fc29*
G04 #@! TF.CreationDate,2020-05-24T09:12:21-05:00*
G04 #@! TF.ProjectId,coleco_to_nes_selectable_v4,636f6c65-636f-45f7-946f-5f6e65735f73,rev?*
G04 #@! TF.SameCoordinates,Original*
G04 #@! TF.FileFunction,Soldermask,Top*
G04 #@! TF.FilePolarity,Negative*
%FSLAX46Y46*%
G04 Gerber Fmt 4.6, Leading zero omitted, Abs format (unit mm)*
G04 Created by KiCad (PCBNEW 5.0.2-5.fc29) date Sun 24 May 2020 09:12:21 AM CDT*
%MOMM*%
%LPD*%
G01*
G04 APERTURE LIST*
%ADD10C,0.100000*%
G04 APERTURE END LIST*
D10*
G36*
X103705417Y-89474827D02*
X103707128Y-89475050D01*
X103710177Y-89475408D01*
X103710481Y-89475440D01*
X103714267Y-89476317D01*
X103717357Y-89476992D01*
X103721497Y-89477841D01*
X103721517Y-89477848D01*
X103724565Y-89478834D01*
X103724831Y-89478916D01*
X103728249Y-89480460D01*
X103731296Y-89481788D01*
X103735102Y-89483386D01*
X103735124Y-89483399D01*
X103737978Y-89484991D01*
X103738195Y-89485108D01*
X103741208Y-89487262D01*
X103744029Y-89489220D01*
X103747391Y-89491486D01*
X103747393Y-89491488D01*
X103749972Y-89493681D01*
X103750104Y-89493790D01*
X103752630Y-89496480D01*
X103755069Y-89499006D01*
X103757885Y-89501840D01*
X103760038Y-89504558D01*
X103760075Y-89504604D01*
X103762011Y-89507706D01*
X103763945Y-89510708D01*
X103766157Y-89514037D01*
X103767760Y-89517160D01*
X103767766Y-89517171D01*
X103769052Y-89520571D01*
X103770396Y-89523972D01*
X103771903Y-89527629D01*
X103772870Y-89531016D01*
X103772948Y-89531274D01*
X103773973Y-89537220D01*
X103774541Y-89540285D01*
X103774957Y-89542383D01*
X103775246Y-89546064D01*
X103775288Y-89546536D01*
X103775605Y-89553040D01*
X103775605Y-95542904D01*
X103775086Y-95547342D01*
X103775085Y-95547374D01*
X103775380Y-95551779D01*
X103775294Y-95553237D01*
X103774861Y-95555314D01*
X103774214Y-95561459D01*
X103774213Y-95561571D01*
X103773506Y-95564905D01*
X103773354Y-95565633D01*
X103772693Y-95568843D01*
X103772660Y-95569155D01*
X103772391Y-95569788D01*
X103770571Y-95575668D01*
X103770541Y-95575812D01*
X103769226Y-95578882D01*
X103768901Y-95579647D01*
X103767644Y-95582635D01*
X103767566Y-95582887D01*
X103767166Y-95583474D01*
X103764241Y-95588884D01*
X103764163Y-95589069D01*
X103762375Y-95591678D01*
X103761793Y-95592535D01*
X103759942Y-95595284D01*
X103759883Y-95595394D01*
X103759385Y-95595885D01*
X103755484Y-95600600D01*
X103755389Y-95600741D01*
X103752894Y-95603184D01*
X103752260Y-95603809D01*
X103750068Y-95605986D01*
X103749929Y-95606154D01*
X103749371Y-95606522D01*
X103744587Y-95610423D01*
X103744476Y-95610533D01*
X103741901Y-95612218D01*
X103741150Y-95612714D01*
X103738231Y-95614654D01*
X103738071Y-95614785D01*
X103737443Y-95615041D01*
X103731985Y-95617943D01*
X103731889Y-95618007D01*
X103728997Y-95619176D01*
X103728235Y-95619487D01*
X103724982Y-95620827D01*
X103724758Y-95620946D01*
X103724097Y-95621075D01*
X103718184Y-95622860D01*
X103717989Y-95622941D01*
X103714768Y-95623552D01*
X103713728Y-95623754D01*
X103710652Y-95624365D01*
X103710515Y-95624407D01*
X103709807Y-95624404D01*
X103703673Y-95625006D01*
X103701868Y-95625364D01*
X103696945Y-95625605D01*
X103654613Y-95625605D01*
X103649648Y-95625080D01*
X103649532Y-95625079D01*
X103646967Y-95625309D01*
X103645648Y-95625231D01*
X103638733Y-95624455D01*
X103628077Y-95622452D01*
X103613755Y-95618871D01*
X103595634Y-95615735D01*
X103111916Y-95568306D01*
X103105592Y-95567305D01*
X103103032Y-95566761D01*
X103101326Y-95566410D01*
X103098496Y-95565849D01*
X103092511Y-95564357D01*
X102539607Y-95397426D01*
X102534517Y-95395343D01*
X102533745Y-95395114D01*
X102531723Y-95394725D01*
X102531598Y-95394662D01*
X102530839Y-95394383D01*
X102528457Y-95393362D01*
X102526853Y-95392688D01*
X102524166Y-95391580D01*
X102518596Y-95388959D01*
X102006393Y-95116616D01*
X102001176Y-95113264D01*
X102000344Y-95112854D01*
X102000112Y-95112767D01*
X101998518Y-95111675D01*
X101997055Y-95110689D01*
X101994626Y-95109075D01*
X101989684Y-95105432D01*
X101923168Y-95051182D01*
X101904020Y-95038313D01*
X101867722Y-95018514D01*
X101860150Y-95013652D01*
X101850184Y-95006195D01*
X101843370Y-95000292D01*
X101770901Y-94927823D01*
X101761517Y-94919343D01*
X101539858Y-94738562D01*
X101535146Y-94734231D01*
X101533273Y-94732319D01*
X101532058Y-94731095D01*
X101530052Y-94729103D01*
X101525891Y-94724546D01*
X101156526Y-94278061D01*
X101154021Y-94274388D01*
X101153461Y-94273727D01*
X101152840Y-94273125D01*
X101152136Y-94272163D01*
X101150701Y-94269970D01*
X101149731Y-94268510D01*
X101148124Y-94266127D01*
X101144924Y-94260844D01*
X100978609Y-93953251D01*
X100971427Y-93941553D01*
X100939438Y-93895345D01*
X100936430Y-93890556D01*
X100932573Y-93883758D01*
X100930015Y-93878740D01*
X100887976Y-93786253D01*
X100884136Y-93778525D01*
X100872478Y-93756964D01*
X100869817Y-93750771D01*
X100868440Y-93748224D01*
X100868437Y-93748220D01*
X100868435Y-93748215D01*
X100867945Y-93747294D01*
X100866886Y-93744672D01*
X100865340Y-93742462D01*
X100865192Y-93742096D01*
X100864537Y-93740507D01*
X100863395Y-93737790D01*
X100861281Y-93731980D01*
X100859299Y-93725577D01*
X100853688Y-93710823D01*
X100682443Y-93334083D01*
X100680165Y-93328336D01*
X100678099Y-93322275D01*
X100675545Y-93312037D01*
X100675059Y-93309035D01*
X100674510Y-93304684D01*
X100624833Y-92758244D01*
X100624640Y-92755412D01*
X100624460Y-92751430D01*
X100624395Y-92748558D01*
X100624395Y-92254164D01*
X100624953Y-92245797D01*
X100626492Y-92234304D01*
X100628153Y-92226098D01*
X100666361Y-92086000D01*
X100670250Y-92064441D01*
X100677225Y-91987807D01*
X100678362Y-91981975D01*
X100678381Y-91981777D01*
X100678446Y-91981068D01*
X100678446Y-91977806D01*
X100678615Y-91976686D01*
X100679143Y-91974112D01*
X100679478Y-91972417D01*
X100680021Y-91969569D01*
X100681471Y-91963578D01*
X100843092Y-91414439D01*
X100845527Y-91408312D01*
X100846498Y-91405012D01*
X100846499Y-91405005D01*
X100846502Y-91404998D01*
X100846802Y-91404002D01*
X100847822Y-91401576D01*
X100848302Y-91398873D01*
X100848526Y-91398341D01*
X100849194Y-91396719D01*
X100850269Y-91394057D01*
X100852862Y-91388447D01*
X100906984Y-91284920D01*
X100914793Y-91266537D01*
X100976958Y-91080042D01*
X100980136Y-91072272D01*
X100985222Y-91061874D01*
X100989400Y-91054599D01*
X101385385Y-90460623D01*
X101389084Y-90455625D01*
X101392534Y-90451413D01*
X101396876Y-90447066D01*
X101396912Y-90447022D01*
X101396956Y-90446986D01*
X101401296Y-90442641D01*
X101405612Y-90439099D01*
X101410644Y-90435370D01*
X101633414Y-90286857D01*
X101644424Y-90278607D01*
X101950980Y-90021377D01*
X101955698Y-90018191D01*
X101956287Y-90017709D01*
X101958880Y-90015124D01*
X101960113Y-90014207D01*
X101962300Y-90012754D01*
X101963768Y-90011764D01*
X101966102Y-90010166D01*
X101971359Y-90006931D01*
X102250994Y-89853200D01*
X102265775Y-89843662D01*
X102402186Y-89741354D01*
X102407315Y-89737887D01*
X102412214Y-89734915D01*
X102422879Y-89729750D01*
X102427413Y-89728060D01*
X102432820Y-89726320D01*
X102745768Y-89640971D01*
X102750675Y-89639524D01*
X103046058Y-89545822D01*
X103052114Y-89544535D01*
X103053578Y-89544071D01*
X103053587Y-89544067D01*
X103053597Y-89544065D01*
X103054588Y-89543758D01*
X103055246Y-89543628D01*
X103057904Y-89542485D01*
X103060232Y-89542024D01*
X103061935Y-89541674D01*
X103064780Y-89541069D01*
X103070876Y-89540082D01*
X103647768Y-89475373D01*
X103651223Y-89475193D01*
X103651693Y-89475168D01*
X103660640Y-89474668D01*
X103697493Y-89474411D01*
X103705417Y-89474827D01*
X103705417Y-89474827D01*
G37*
G36*
X104350352Y-89474920D02*
X104350468Y-89474921D01*
X104353033Y-89474691D01*
X104354352Y-89474769D01*
X104361267Y-89475545D01*
X104371923Y-89477548D01*
X104386245Y-89481129D01*
X104404366Y-89484265D01*
X104888084Y-89531694D01*
X104894408Y-89532695D01*
X104896968Y-89533239D01*
X104898674Y-89533590D01*
X104901504Y-89534151D01*
X104907489Y-89535643D01*
X105460393Y-89702574D01*
X105465483Y-89704657D01*
X105466255Y-89704886D01*
X105468277Y-89705275D01*
X105468402Y-89705338D01*
X105469161Y-89705617D01*
X105471543Y-89706638D01*
X105473147Y-89707312D01*
X105475834Y-89708420D01*
X105481404Y-89711041D01*
X105993607Y-89983384D01*
X105998824Y-89986736D01*
X105999656Y-89987146D01*
X105999888Y-89987233D01*
X106001482Y-89988325D01*
X106002945Y-89989311D01*
X106005374Y-89990925D01*
X106010316Y-89994568D01*
X106076832Y-90048818D01*
X106095980Y-90061687D01*
X106132278Y-90081486D01*
X106139850Y-90086348D01*
X106149816Y-90093805D01*
X106156630Y-90099708D01*
X106229099Y-90172177D01*
X106238483Y-90180657D01*
X106460142Y-90361438D01*
X106464854Y-90365769D01*
X106466727Y-90367681D01*
X106467942Y-90368905D01*
X106469948Y-90370897D01*
X106474109Y-90375454D01*
X106843474Y-90821939D01*
X106845979Y-90825612D01*
X106846539Y-90826273D01*
X106847160Y-90826875D01*
X106847864Y-90827837D01*
X106849299Y-90830030D01*
X106850269Y-90831490D01*
X106851876Y-90833873D01*
X106855076Y-90839156D01*
X107021391Y-91146749D01*
X107028573Y-91158447D01*
X107060562Y-91204655D01*
X107063570Y-91209444D01*
X107067427Y-91216242D01*
X107069985Y-91221260D01*
X107112024Y-91313747D01*
X107115864Y-91321475D01*
X107127522Y-91343036D01*
X107130183Y-91349229D01*
X107131560Y-91351776D01*
X107131563Y-91351780D01*
X107131565Y-91351785D01*
X107132055Y-91352706D01*
X107133114Y-91355328D01*
X107134660Y-91357538D01*
X107134808Y-91357904D01*
X107135463Y-91359493D01*
X107136605Y-91362210D01*
X107138719Y-91368020D01*
X107140701Y-91374423D01*
X107146312Y-91389177D01*
X107317557Y-91765917D01*
X107319835Y-91771664D01*
X107321901Y-91777725D01*
X107324455Y-91787963D01*
X107324941Y-91790965D01*
X107325490Y-91795316D01*
X107375167Y-92341756D01*
X107375360Y-92344588D01*
X107375540Y-92348570D01*
X107375605Y-92351420D01*
X107375605Y-92845836D01*
X107375047Y-92854203D01*
X107373508Y-92865696D01*
X107371847Y-92873902D01*
X107333639Y-93014000D01*
X107329750Y-93035559D01*
X107322775Y-93112193D01*
X107321638Y-93118025D01*
X107321619Y-93118223D01*
X107321554Y-93118932D01*
X107321554Y-93122194D01*
X107321385Y-93123314D01*
X107320857Y-93125888D01*
X107320522Y-93127583D01*
X107319979Y-93130431D01*
X107318529Y-93136422D01*
X107156908Y-93685561D01*
X107154473Y-93691688D01*
X107153502Y-93694988D01*
X107153501Y-93694995D01*
X107153498Y-93695002D01*
X107153198Y-93695998D01*
X107152178Y-93698424D01*
X107151698Y-93701127D01*
X107151474Y-93701659D01*
X107150806Y-93703281D01*
X107149731Y-93705943D01*
X107147138Y-93711553D01*
X107093016Y-93815080D01*
X107085207Y-93833463D01*
X107023042Y-94019958D01*
X107019864Y-94027728D01*
X107014778Y-94038126D01*
X107010600Y-94045401D01*
X106614615Y-94639377D01*
X106610916Y-94644375D01*
X106607466Y-94648587D01*
X106603124Y-94652934D01*
X106603088Y-94652978D01*
X106603044Y-94653014D01*
X106598704Y-94657359D01*
X106594388Y-94660901D01*
X106589356Y-94664630D01*
X106366586Y-94813143D01*
X106355576Y-94821393D01*
X106049020Y-95078623D01*
X106044302Y-95081809D01*
X106043713Y-95082291D01*
X106041120Y-95084876D01*
X106039887Y-95085793D01*
X106037700Y-95087246D01*
X106036232Y-95088236D01*
X106033898Y-95089834D01*
X106028641Y-95093069D01*
X105749006Y-95246800D01*
X105734225Y-95256338D01*
X105597814Y-95358646D01*
X105592685Y-95362113D01*
X105587786Y-95365085D01*
X105577121Y-95370250D01*
X105572587Y-95371940D01*
X105567180Y-95373680D01*
X105254232Y-95459029D01*
X105249325Y-95460476D01*
X104953942Y-95554178D01*
X104947886Y-95555465D01*
X104946422Y-95555929D01*
X104946413Y-95555933D01*
X104946403Y-95555935D01*
X104945412Y-95556242D01*
X104944754Y-95556372D01*
X104942096Y-95557515D01*
X104939768Y-95557976D01*
X104938065Y-95558326D01*
X104935220Y-95558931D01*
X104929124Y-95559918D01*
X104352232Y-95624627D01*
X104348777Y-95624807D01*
X104348307Y-95624832D01*
X104339360Y-95625332D01*
X104302507Y-95625589D01*
X104294583Y-95625173D01*
X104292872Y-95624950D01*
X104289823Y-95624592D01*
X104289519Y-95624560D01*
X104285733Y-95623683D01*
X104282643Y-95623008D01*
X104278503Y-95622159D01*
X104278483Y-95622152D01*
X104275435Y-95621166D01*
X104275169Y-95621084D01*
X104271751Y-95619540D01*
X104268704Y-95618212D01*
X104264898Y-95616614D01*
X104264876Y-95616601D01*
X104262022Y-95615009D01*
X104261805Y-95614892D01*
X104258792Y-95612738D01*
X104255971Y-95610780D01*
X104252609Y-95608514D01*
X104252607Y-95608512D01*
X104250028Y-95606319D01*
X104249896Y-95606210D01*
X104247370Y-95603520D01*
X104244931Y-95600994D01*
X104242115Y-95598160D01*
X104239962Y-95595442D01*
X104239925Y-95595396D01*
X104237989Y-95592294D01*
X104236055Y-95589292D01*
X104233842Y-95585961D01*
X104232240Y-95582840D01*
X104232234Y-95582828D01*
X104230948Y-95579429D01*
X104229604Y-95576028D01*
X104228097Y-95572371D01*
X104227130Y-95568984D01*
X104227052Y-95568726D01*
X104226027Y-95562780D01*
X104225459Y-95559715D01*
X104225043Y-95557617D01*
X104224754Y-95553936D01*
X104224712Y-95553464D01*
X104224395Y-95546960D01*
X104224395Y-89557096D01*
X104224914Y-89552658D01*
X104224915Y-89552626D01*
X104224620Y-89548221D01*
X104224706Y-89546763D01*
X104225139Y-89544686D01*
X104225786Y-89538541D01*
X104225787Y-89538429D01*
X104226494Y-89535095D01*
X104226646Y-89534367D01*
X104227307Y-89531157D01*
X104227340Y-89530845D01*
X104227609Y-89530212D01*
X104229429Y-89524332D01*
X104229459Y-89524188D01*
X104230774Y-89521118D01*
X104231099Y-89520353D01*
X104232356Y-89517365D01*
X104232434Y-89517113D01*
X104232834Y-89516526D01*
X104235759Y-89511116D01*
X104235837Y-89510931D01*
X104237625Y-89508322D01*
X104238207Y-89507465D01*
X104240058Y-89504716D01*
X104240117Y-89504606D01*
X104240615Y-89504115D01*
X104244516Y-89499400D01*
X104244610Y-89499261D01*
X104247123Y-89496800D01*
X104247752Y-89496180D01*
X104249931Y-89494016D01*
X104250072Y-89493845D01*
X104250629Y-89493478D01*
X104255413Y-89489577D01*
X104255524Y-89489467D01*
X104258099Y-89487782D01*
X104258850Y-89487286D01*
X104261769Y-89485346D01*
X104261929Y-89485215D01*
X104262557Y-89484959D01*
X104268015Y-89482057D01*
X104268111Y-89481993D01*
X104271003Y-89480824D01*
X104271765Y-89480513D01*
X104275018Y-89479173D01*
X104275242Y-89479054D01*
X104275903Y-89478925D01*
X104281816Y-89477140D01*
X104282011Y-89477059D01*
X104285232Y-89476448D01*
X104286272Y-89476246D01*
X104289348Y-89475635D01*
X104289485Y-89475593D01*
X104290193Y-89475596D01*
X104296327Y-89474994D01*
X104298132Y-89474636D01*
X104303055Y-89474395D01*
X104345387Y-89474395D01*
X104350352Y-89474920D01*
X104350352Y-89474920D01*
G37*
G36*
X131205417Y-86474827D02*
X131207128Y-86475050D01*
X131210177Y-86475408D01*
X131210481Y-86475440D01*
X131214267Y-86476317D01*
X131217357Y-86476992D01*
X131221497Y-86477841D01*
X131221517Y-86477848D01*
X131224565Y-86478834D01*
X131224831Y-86478916D01*
X131228249Y-86480460D01*
X131231296Y-86481788D01*
X131235102Y-86483386D01*
X131235124Y-86483399D01*
X131237978Y-86484991D01*
X131238195Y-86485108D01*
X131241208Y-86487262D01*
X131244029Y-86489220D01*
X131247391Y-86491486D01*
X131247393Y-86491488D01*
X131249972Y-86493681D01*
X131250104Y-86493790D01*
X131252630Y-86496480D01*
X131255069Y-86499006D01*
X131257885Y-86501840D01*
X131260038Y-86504558D01*
X131260075Y-86504604D01*
X131262011Y-86507706D01*
X131263945Y-86510708D01*
X131266157Y-86514037D01*
X131267760Y-86517160D01*
X131267766Y-86517171D01*
X131269052Y-86520571D01*
X131270396Y-86523972D01*
X131271903Y-86527629D01*
X131272870Y-86531016D01*
X131272948Y-86531274D01*
X131273973Y-86537220D01*
X131274541Y-86540285D01*
X131274957Y-86542383D01*
X131275246Y-86546064D01*
X131275288Y-86546536D01*
X131275605Y-86553040D01*
X131275605Y-92542904D01*
X131275086Y-92547342D01*
X131275085Y-92547374D01*
X131275380Y-92551779D01*
X131275294Y-92553237D01*
X131274861Y-92555314D01*
X131274214Y-92561459D01*
X131274213Y-92561571D01*
X131273506Y-92564905D01*
X131273354Y-92565633D01*
X131272693Y-92568843D01*
X131272660Y-92569155D01*
X131272391Y-92569788D01*
X131270571Y-92575668D01*
X131270541Y-92575812D01*
X131269226Y-92578882D01*
X131268901Y-92579647D01*
X131267644Y-92582635D01*
X131267566Y-92582887D01*
X131267166Y-92583474D01*
X131264241Y-92588884D01*
X131264163Y-92589069D01*
X131262375Y-92591678D01*
X131261793Y-92592535D01*
X131259942Y-92595284D01*
X131259883Y-92595394D01*
X131259385Y-92595885D01*
X131255484Y-92600600D01*
X131255389Y-92600741D01*
X131252894Y-92603184D01*
X131252260Y-92603809D01*
X131250068Y-92605986D01*
X131249929Y-92606154D01*
X131249371Y-92606522D01*
X131244587Y-92610423D01*
X131244476Y-92610533D01*
X131241901Y-92612218D01*
X131241150Y-92612714D01*
X131238231Y-92614654D01*
X131238071Y-92614785D01*
X131237443Y-92615041D01*
X131231985Y-92617943D01*
X131231889Y-92618007D01*
X131228997Y-92619176D01*
X131228235Y-92619487D01*
X131224982Y-92620827D01*
X131224758Y-92620946D01*
X131224097Y-92621075D01*
X131218184Y-92622860D01*
X131217989Y-92622941D01*
X131214768Y-92623552D01*
X131213728Y-92623754D01*
X131210652Y-92624365D01*
X131210515Y-92624407D01*
X131209807Y-92624404D01*
X131203673Y-92625006D01*
X131201868Y-92625364D01*
X131196945Y-92625605D01*
X131154613Y-92625605D01*
X131149648Y-92625080D01*
X131149532Y-92625079D01*
X131146967Y-92625309D01*
X131145648Y-92625231D01*
X131138733Y-92624455D01*
X131128077Y-92622452D01*
X131113755Y-92618871D01*
X131095634Y-92615735D01*
X130611916Y-92568306D01*
X130605592Y-92567305D01*
X130603032Y-92566761D01*
X130601326Y-92566410D01*
X130598496Y-92565849D01*
X130592511Y-92564357D01*
X130039607Y-92397426D01*
X130034517Y-92395343D01*
X130033745Y-92395114D01*
X130031723Y-92394725D01*
X130031598Y-92394662D01*
X130030839Y-92394383D01*
X130028457Y-92393362D01*
X130026853Y-92392688D01*
X130024166Y-92391580D01*
X130018596Y-92388959D01*
X129506393Y-92116616D01*
X129501176Y-92113264D01*
X129500344Y-92112854D01*
X129500112Y-92112767D01*
X129498518Y-92111675D01*
X129497055Y-92110689D01*
X129494626Y-92109075D01*
X129489684Y-92105432D01*
X129423168Y-92051182D01*
X129404020Y-92038313D01*
X129367722Y-92018514D01*
X129360150Y-92013652D01*
X129350184Y-92006195D01*
X129343370Y-92000292D01*
X129270901Y-91927823D01*
X129261517Y-91919343D01*
X129039858Y-91738562D01*
X129035146Y-91734231D01*
X129033273Y-91732319D01*
X129032058Y-91731095D01*
X129030052Y-91729103D01*
X129025891Y-91724546D01*
X128656526Y-91278061D01*
X128654021Y-91274388D01*
X128653461Y-91273727D01*
X128652840Y-91273125D01*
X128652136Y-91272163D01*
X128650701Y-91269970D01*
X128649731Y-91268510D01*
X128648124Y-91266127D01*
X128644924Y-91260844D01*
X128478609Y-90953251D01*
X128471427Y-90941553D01*
X128439438Y-90895345D01*
X128436430Y-90890556D01*
X128432573Y-90883758D01*
X128430015Y-90878740D01*
X128387976Y-90786253D01*
X128384136Y-90778525D01*
X128372478Y-90756964D01*
X128369817Y-90750771D01*
X128368440Y-90748224D01*
X128368437Y-90748220D01*
X128368435Y-90748215D01*
X128367945Y-90747294D01*
X128366886Y-90744672D01*
X128365340Y-90742462D01*
X128365192Y-90742096D01*
X128364537Y-90740507D01*
X128363395Y-90737790D01*
X128361281Y-90731980D01*
X128359299Y-90725577D01*
X128353688Y-90710823D01*
X128182443Y-90334083D01*
X128180165Y-90328336D01*
X128178099Y-90322275D01*
X128175545Y-90312037D01*
X128175059Y-90309035D01*
X128174510Y-90304684D01*
X128124833Y-89758244D01*
X128124640Y-89755412D01*
X128124460Y-89751430D01*
X128124395Y-89748580D01*
X128124395Y-89254164D01*
X128124953Y-89245797D01*
X128126492Y-89234304D01*
X128128153Y-89226098D01*
X128166361Y-89086000D01*
X128170250Y-89064441D01*
X128177225Y-88987807D01*
X128178362Y-88981975D01*
X128178381Y-88981777D01*
X128178446Y-88981068D01*
X128178446Y-88977806D01*
X128178615Y-88976686D01*
X128179143Y-88974112D01*
X128179478Y-88972417D01*
X128180021Y-88969569D01*
X128181471Y-88963578D01*
X128343092Y-88414439D01*
X128345527Y-88408312D01*
X128346498Y-88405012D01*
X128346499Y-88405005D01*
X128346502Y-88404998D01*
X128346802Y-88404002D01*
X128347822Y-88401576D01*
X128348302Y-88398873D01*
X128348526Y-88398341D01*
X128349194Y-88396719D01*
X128350269Y-88394057D01*
X128352862Y-88388447D01*
X128406984Y-88284920D01*
X128414793Y-88266537D01*
X128476958Y-88080042D01*
X128480136Y-88072272D01*
X128485222Y-88061874D01*
X128489400Y-88054599D01*
X128885385Y-87460623D01*
X128889084Y-87455625D01*
X128892534Y-87451413D01*
X128896876Y-87447066D01*
X128896912Y-87447022D01*
X128896956Y-87446986D01*
X128901296Y-87442641D01*
X128905612Y-87439099D01*
X128910644Y-87435370D01*
X129133414Y-87286857D01*
X129144424Y-87278607D01*
X129450980Y-87021377D01*
X129455698Y-87018191D01*
X129456287Y-87017709D01*
X129458880Y-87015124D01*
X129460113Y-87014207D01*
X129462300Y-87012754D01*
X129463768Y-87011764D01*
X129466102Y-87010166D01*
X129471359Y-87006931D01*
X129750994Y-86853200D01*
X129765775Y-86843662D01*
X129902186Y-86741354D01*
X129907315Y-86737887D01*
X129912214Y-86734915D01*
X129922879Y-86729750D01*
X129927413Y-86728060D01*
X129932820Y-86726320D01*
X130245768Y-86640971D01*
X130250675Y-86639524D01*
X130546058Y-86545822D01*
X130552114Y-86544535D01*
X130553578Y-86544071D01*
X130553587Y-86544067D01*
X130553597Y-86544065D01*
X130554588Y-86543758D01*
X130555246Y-86543628D01*
X130557904Y-86542485D01*
X130560232Y-86542024D01*
X130561935Y-86541674D01*
X130564780Y-86541069D01*
X130570876Y-86540082D01*
X131147768Y-86475373D01*
X131151223Y-86475193D01*
X131151693Y-86475168D01*
X131160640Y-86474668D01*
X131197493Y-86474411D01*
X131205417Y-86474827D01*
X131205417Y-86474827D01*
G37*
G36*
X147205417Y-86474827D02*
X147207128Y-86475050D01*
X147210177Y-86475408D01*
X147210481Y-86475440D01*
X147214267Y-86476317D01*
X147217357Y-86476992D01*
X147221497Y-86477841D01*
X147221517Y-86477848D01*
X147224565Y-86478834D01*
X147224831Y-86478916D01*
X147228249Y-86480460D01*
X147231296Y-86481788D01*
X147235102Y-86483386D01*
X147235124Y-86483399D01*
X147237978Y-86484991D01*
X147238195Y-86485108D01*
X147241208Y-86487262D01*
X147244029Y-86489220D01*
X147247391Y-86491486D01*
X147247393Y-86491488D01*
X147249972Y-86493681D01*
X147250104Y-86493790D01*
X147252630Y-86496480D01*
X147255069Y-86499006D01*
X147257885Y-86501840D01*
X147260038Y-86504558D01*
X147260075Y-86504604D01*
X147262011Y-86507706D01*
X147263945Y-86510708D01*
X147266157Y-86514037D01*
X147267760Y-86517160D01*
X147267766Y-86517171D01*
X147269052Y-86520571D01*
X147270396Y-86523972D01*
X147271903Y-86527629D01*
X147272870Y-86531016D01*
X147272948Y-86531274D01*
X147273973Y-86537220D01*
X147274541Y-86540285D01*
X147274957Y-86542383D01*
X147275246Y-86546064D01*
X147275288Y-86546536D01*
X147275605Y-86553040D01*
X147275605Y-92542904D01*
X147275086Y-92547342D01*
X147275085Y-92547374D01*
X147275380Y-92551779D01*
X147275294Y-92553237D01*
X147274861Y-92555314D01*
X147274214Y-92561459D01*
X147274213Y-92561571D01*
X147273506Y-92564905D01*
X147273354Y-92565633D01*
X147272693Y-92568843D01*
X147272660Y-92569155D01*
X147272391Y-92569788D01*
X147270571Y-92575668D01*
X147270541Y-92575812D01*
X147269226Y-92578882D01*
X147268901Y-92579647D01*
X147267644Y-92582635D01*
X147267566Y-92582887D01*
X147267166Y-92583474D01*
X147264241Y-92588884D01*
X147264163Y-92589069D01*
X147262375Y-92591678D01*
X147261793Y-92592535D01*
X147259942Y-92595284D01*
X147259883Y-92595394D01*
X147259385Y-92595885D01*
X147255484Y-92600600D01*
X147255389Y-92600741D01*
X147252894Y-92603184D01*
X147252260Y-92603809D01*
X147250068Y-92605986D01*
X147249929Y-92606154D01*
X147249371Y-92606522D01*
X147244587Y-92610423D01*
X147244476Y-92610533D01*
X147241901Y-92612218D01*
X147241150Y-92612714D01*
X147238231Y-92614654D01*
X147238071Y-92614785D01*
X147237443Y-92615041D01*
X147231985Y-92617943D01*
X147231889Y-92618007D01*
X147228997Y-92619176D01*
X147228235Y-92619487D01*
X147224982Y-92620827D01*
X147224758Y-92620946D01*
X147224097Y-92621075D01*
X147218184Y-92622860D01*
X147217989Y-92622941D01*
X147214768Y-92623552D01*
X147213728Y-92623754D01*
X147210652Y-92624365D01*
X147210515Y-92624407D01*
X147209807Y-92624404D01*
X147203673Y-92625006D01*
X147201868Y-92625364D01*
X147196945Y-92625605D01*
X147154613Y-92625605D01*
X147149648Y-92625080D01*
X147149532Y-92625079D01*
X147146967Y-92625309D01*
X147145648Y-92625231D01*
X147138733Y-92624455D01*
X147128077Y-92622452D01*
X147113755Y-92618871D01*
X147095634Y-92615735D01*
X146611916Y-92568306D01*
X146605592Y-92567305D01*
X146603032Y-92566761D01*
X146601326Y-92566410D01*
X146598496Y-92565849D01*
X146592511Y-92564357D01*
X146039607Y-92397426D01*
X146034517Y-92395343D01*
X146033745Y-92395114D01*
X146031723Y-92394725D01*
X146031598Y-92394662D01*
X146030839Y-92394383D01*
X146028457Y-92393362D01*
X146026853Y-92392688D01*
X146024166Y-92391580D01*
X146018596Y-92388959D01*
X145506393Y-92116616D01*
X145501176Y-92113264D01*
X145500344Y-92112854D01*
X145500112Y-92112767D01*
X145498518Y-92111675D01*
X145497055Y-92110689D01*
X145494626Y-92109075D01*
X145489684Y-92105432D01*
X145423168Y-92051182D01*
X145404020Y-92038313D01*
X145367722Y-92018514D01*
X145360150Y-92013652D01*
X145350184Y-92006195D01*
X145343370Y-92000292D01*
X145270901Y-91927823D01*
X145261517Y-91919343D01*
X145039858Y-91738562D01*
X145035146Y-91734231D01*
X145033273Y-91732319D01*
X145032058Y-91731095D01*
X145030052Y-91729103D01*
X145025891Y-91724546D01*
X144656526Y-91278061D01*
X144654021Y-91274388D01*
X144653461Y-91273727D01*
X144652840Y-91273125D01*
X144652136Y-91272163D01*
X144650701Y-91269970D01*
X144649731Y-91268510D01*
X144648124Y-91266127D01*
X144644924Y-91260844D01*
X144478609Y-90953251D01*
X144471427Y-90941553D01*
X144439438Y-90895345D01*
X144436430Y-90890556D01*
X144432573Y-90883758D01*
X144430015Y-90878740D01*
X144387976Y-90786253D01*
X144384136Y-90778525D01*
X144372478Y-90756964D01*
X144369817Y-90750771D01*
X144368440Y-90748224D01*
X144368437Y-90748220D01*
X144368435Y-90748215D01*
X144367945Y-90747294D01*
X144366886Y-90744672D01*
X144365340Y-90742462D01*
X144365192Y-90742096D01*
X144364537Y-90740507D01*
X144363395Y-90737790D01*
X144361281Y-90731980D01*
X144359299Y-90725577D01*
X144353688Y-90710823D01*
X144182443Y-90334083D01*
X144180165Y-90328336D01*
X144178099Y-90322275D01*
X144175545Y-90312037D01*
X144175059Y-90309035D01*
X144174510Y-90304684D01*
X144124833Y-89758244D01*
X144124640Y-89755412D01*
X144124460Y-89751430D01*
X144124395Y-89748580D01*
X144124395Y-89254164D01*
X144124953Y-89245797D01*
X144126492Y-89234304D01*
X144128153Y-89226098D01*
X144166361Y-89086000D01*
X144170250Y-89064441D01*
X144177225Y-88987807D01*
X144178362Y-88981975D01*
X144178381Y-88981777D01*
X144178446Y-88981068D01*
X144178446Y-88977806D01*
X144178615Y-88976686D01*
X144179143Y-88974112D01*
X144179478Y-88972417D01*
X144180021Y-88969569D01*
X144181471Y-88963578D01*
X144343092Y-88414439D01*
X144345527Y-88408312D01*
X144346498Y-88405012D01*
X144346499Y-88405005D01*
X144346502Y-88404998D01*
X144346802Y-88404002D01*
X144347822Y-88401576D01*
X144348302Y-88398873D01*
X144348526Y-88398341D01*
X144349194Y-88396719D01*
X144350269Y-88394057D01*
X144352862Y-88388447D01*
X144406984Y-88284920D01*
X144414793Y-88266537D01*
X144476958Y-88080042D01*
X144480136Y-88072272D01*
X144485222Y-88061874D01*
X144489400Y-88054599D01*
X144885385Y-87460623D01*
X144889084Y-87455625D01*
X144892534Y-87451413D01*
X144896876Y-87447066D01*
X144896912Y-87447022D01*
X144896956Y-87446986D01*
X144901296Y-87442641D01*
X144905612Y-87439099D01*
X144910644Y-87435370D01*
X145133414Y-87286857D01*
X145144424Y-87278607D01*
X145450980Y-87021377D01*
X145455698Y-87018191D01*
X145456287Y-87017709D01*
X145458880Y-87015124D01*
X145460113Y-87014207D01*
X145462300Y-87012754D01*
X145463768Y-87011764D01*
X145466102Y-87010166D01*
X145471359Y-87006931D01*
X145750994Y-86853200D01*
X145765775Y-86843662D01*
X145902186Y-86741354D01*
X145907315Y-86737887D01*
X145912214Y-86734915D01*
X145922879Y-86729750D01*
X145927413Y-86728060D01*
X145932820Y-86726320D01*
X146245768Y-86640971D01*
X146250675Y-86639524D01*
X146546058Y-86545822D01*
X146552114Y-86544535D01*
X146553578Y-86544071D01*
X146553587Y-86544067D01*
X146553597Y-86544065D01*
X146554588Y-86543758D01*
X146555246Y-86543628D01*
X146557904Y-86542485D01*
X146560232Y-86542024D01*
X146561935Y-86541674D01*
X146564780Y-86541069D01*
X146570876Y-86540082D01*
X147147768Y-86475373D01*
X147151223Y-86475193D01*
X147151693Y-86475168D01*
X147160640Y-86474668D01*
X147197493Y-86474411D01*
X147205417Y-86474827D01*
X147205417Y-86474827D01*
G37*
G36*
X131850352Y-86474920D02*
X131850468Y-86474921D01*
X131853033Y-86474691D01*
X131854352Y-86474769D01*
X131861267Y-86475545D01*
X131871923Y-86477548D01*
X131886245Y-86481129D01*
X131904366Y-86484265D01*
X132388084Y-86531694D01*
X132394408Y-86532695D01*
X132396968Y-86533239D01*
X132398674Y-86533590D01*
X132401504Y-86534151D01*
X132407489Y-86535643D01*
X132960393Y-86702574D01*
X132965483Y-86704657D01*
X132966255Y-86704886D01*
X132968277Y-86705275D01*
X132968402Y-86705338D01*
X132969161Y-86705617D01*
X132971543Y-86706638D01*
X132973147Y-86707312D01*
X132975834Y-86708420D01*
X132981404Y-86711041D01*
X133493607Y-86983384D01*
X133498824Y-86986736D01*
X133499656Y-86987146D01*
X133499888Y-86987233D01*
X133501482Y-86988325D01*
X133502945Y-86989311D01*
X133505374Y-86990925D01*
X133510316Y-86994568D01*
X133576832Y-87048818D01*
X133595980Y-87061687D01*
X133632278Y-87081486D01*
X133639850Y-87086348D01*
X133649816Y-87093805D01*
X133656630Y-87099708D01*
X133729099Y-87172177D01*
X133738483Y-87180657D01*
X133960142Y-87361438D01*
X133964854Y-87365769D01*
X133966727Y-87367681D01*
X133967942Y-87368905D01*
X133969948Y-87370897D01*
X133974109Y-87375454D01*
X134343474Y-87821939D01*
X134345979Y-87825612D01*
X134346539Y-87826273D01*
X134347160Y-87826875D01*
X134347864Y-87827837D01*
X134349299Y-87830030D01*
X134350269Y-87831490D01*
X134351876Y-87833873D01*
X134355076Y-87839156D01*
X134521391Y-88146749D01*
X134528573Y-88158447D01*
X134560562Y-88204655D01*
X134563570Y-88209444D01*
X134567427Y-88216242D01*
X134569985Y-88221260D01*
X134612024Y-88313747D01*
X134615864Y-88321475D01*
X134627522Y-88343036D01*
X134630183Y-88349229D01*
X134631560Y-88351776D01*
X134631563Y-88351780D01*
X134631565Y-88351785D01*
X134632055Y-88352706D01*
X134633114Y-88355328D01*
X134634660Y-88357538D01*
X134634808Y-88357904D01*
X134635463Y-88359493D01*
X134636605Y-88362210D01*
X134638719Y-88368020D01*
X134640701Y-88374423D01*
X134646312Y-88389177D01*
X134817557Y-88765917D01*
X134819835Y-88771664D01*
X134821901Y-88777725D01*
X134824455Y-88787963D01*
X134824941Y-88790965D01*
X134825490Y-88795316D01*
X134875167Y-89341756D01*
X134875360Y-89344588D01*
X134875540Y-89348570D01*
X134875605Y-89351416D01*
X134875605Y-89845836D01*
X134875047Y-89854203D01*
X134873508Y-89865696D01*
X134871847Y-89873902D01*
X134833639Y-90014000D01*
X134829750Y-90035559D01*
X134822775Y-90112193D01*
X134821638Y-90118025D01*
X134821619Y-90118223D01*
X134821554Y-90118932D01*
X134821554Y-90122194D01*
X134821385Y-90123314D01*
X134820857Y-90125888D01*
X134820522Y-90127583D01*
X134819979Y-90130431D01*
X134818529Y-90136422D01*
X134656908Y-90685561D01*
X134654473Y-90691688D01*
X134653502Y-90694988D01*
X134653501Y-90694995D01*
X134653498Y-90695002D01*
X134653198Y-90695998D01*
X134652178Y-90698424D01*
X134651698Y-90701127D01*
X134651474Y-90701659D01*
X134650806Y-90703281D01*
X134649731Y-90705943D01*
X134647138Y-90711553D01*
X134593016Y-90815080D01*
X134585207Y-90833463D01*
X134523042Y-91019958D01*
X134519864Y-91027728D01*
X134514778Y-91038126D01*
X134510600Y-91045401D01*
X134114615Y-91639377D01*
X134110916Y-91644375D01*
X134107466Y-91648587D01*
X134103124Y-91652934D01*
X134103088Y-91652978D01*
X134103044Y-91653014D01*
X134098704Y-91657359D01*
X134094388Y-91660901D01*
X134089356Y-91664630D01*
X133866586Y-91813143D01*
X133855576Y-91821393D01*
X133549020Y-92078623D01*
X133544302Y-92081809D01*
X133543713Y-92082291D01*
X133541120Y-92084876D01*
X133539887Y-92085793D01*
X133537700Y-92087246D01*
X133536232Y-92088236D01*
X133533898Y-92089834D01*
X133528641Y-92093069D01*
X133249006Y-92246800D01*
X133234225Y-92256338D01*
X133097814Y-92358646D01*
X133092685Y-92362113D01*
X133087786Y-92365085D01*
X133077121Y-92370250D01*
X133072587Y-92371940D01*
X133067180Y-92373680D01*
X132754232Y-92459029D01*
X132749325Y-92460476D01*
X132453942Y-92554178D01*
X132447886Y-92555465D01*
X132446422Y-92555929D01*
X132446413Y-92555933D01*
X132446403Y-92555935D01*
X132445412Y-92556242D01*
X132444754Y-92556372D01*
X132442096Y-92557515D01*
X132439768Y-92557976D01*
X132438065Y-92558326D01*
X132435220Y-92558931D01*
X132429124Y-92559918D01*
X131852232Y-92624627D01*
X131848777Y-92624807D01*
X131848307Y-92624832D01*
X131839360Y-92625332D01*
X131802507Y-92625589D01*
X131794583Y-92625173D01*
X131792872Y-92624950D01*
X131789823Y-92624592D01*
X131789519Y-92624560D01*
X131785733Y-92623683D01*
X131782643Y-92623008D01*
X131778503Y-92622159D01*
X131778483Y-92622152D01*
X131775435Y-92621166D01*
X131775169Y-92621084D01*
X131771751Y-92619540D01*
X131768704Y-92618212D01*
X131764898Y-92616614D01*
X131764876Y-92616601D01*
X131762022Y-92615009D01*
X131761805Y-92614892D01*
X131758792Y-92612738D01*
X131755971Y-92610780D01*
X131752609Y-92608514D01*
X131752607Y-92608512D01*
X131750028Y-92606319D01*
X131749896Y-92606210D01*
X131747370Y-92603520D01*
X131744931Y-92600994D01*
X131742115Y-92598160D01*
X131739962Y-92595442D01*
X131739925Y-92595396D01*
X131737989Y-92592294D01*
X131736055Y-92589292D01*
X131733842Y-92585961D01*
X131732240Y-92582840D01*
X131732234Y-92582828D01*
X131730948Y-92579429D01*
X131729604Y-92576028D01*
X131728097Y-92572371D01*
X131727130Y-92568984D01*
X131727052Y-92568726D01*
X131726027Y-92562780D01*
X131725459Y-92559715D01*
X131725043Y-92557617D01*
X131724754Y-92553936D01*
X131724712Y-92553464D01*
X131724395Y-92546960D01*
X131724395Y-86557096D01*
X131724914Y-86552658D01*
X131724915Y-86552626D01*
X131724620Y-86548221D01*
X131724706Y-86546763D01*
X131725139Y-86544686D01*
X131725786Y-86538541D01*
X131725787Y-86538429D01*
X131726494Y-86535095D01*
X131726646Y-86534367D01*
X131727307Y-86531157D01*
X131727340Y-86530845D01*
X131727609Y-86530212D01*
X131729429Y-86524332D01*
X131729459Y-86524188D01*
X131730774Y-86521118D01*
X131731099Y-86520353D01*
X131732356Y-86517365D01*
X131732434Y-86517113D01*
X131732834Y-86516526D01*
X131735759Y-86511116D01*
X131735837Y-86510931D01*
X131737625Y-86508322D01*
X131738207Y-86507465D01*
X131740058Y-86504716D01*
X131740117Y-86504606D01*
X131740615Y-86504115D01*
X131744516Y-86499400D01*
X131744610Y-86499261D01*
X131747123Y-86496800D01*
X131747752Y-86496180D01*
X131749931Y-86494016D01*
X131750072Y-86493845D01*
X131750629Y-86493478D01*
X131755413Y-86489577D01*
X131755524Y-86489467D01*
X131758099Y-86487782D01*
X131758850Y-86487286D01*
X131761769Y-86485346D01*
X131761929Y-86485215D01*
X131762557Y-86484959D01*
X131768015Y-86482057D01*
X131768111Y-86481993D01*
X131771003Y-86480824D01*
X131771765Y-86480513D01*
X131775018Y-86479173D01*
X131775242Y-86479054D01*
X131775903Y-86478925D01*
X131781816Y-86477140D01*
X131782011Y-86477059D01*
X131785232Y-86476448D01*
X131786272Y-86476246D01*
X131789348Y-86475635D01*
X131789485Y-86475593D01*
X131790193Y-86475596D01*
X131796327Y-86474994D01*
X131798132Y-86474636D01*
X131803055Y-86474395D01*
X131845387Y-86474395D01*
X131850352Y-86474920D01*
X131850352Y-86474920D01*
G37*
G36*
X147850352Y-86474920D02*
X147850468Y-86474921D01*
X147853033Y-86474691D01*
X147854352Y-86474769D01*
X147861267Y-86475545D01*
X147871923Y-86477548D01*
X147886245Y-86481129D01*
X147904366Y-86484265D01*
X148388084Y-86531694D01*
X148394408Y-86532695D01*
X148396968Y-86533239D01*
X148398674Y-86533590D01*
X148401504Y-86534151D01*
X148407489Y-86535643D01*
X148960393Y-86702574D01*
X148965483Y-86704657D01*
X148966255Y-86704886D01*
X148968277Y-86705275D01*
X148968402Y-86705338D01*
X148969161Y-86705617D01*
X148971543Y-86706638D01*
X148973147Y-86707312D01*
X148975834Y-86708420D01*
X148981404Y-86711041D01*
X149493607Y-86983384D01*
X149498824Y-86986736D01*
X149499656Y-86987146D01*
X149499888Y-86987233D01*
X149501482Y-86988325D01*
X149502945Y-86989311D01*
X149505374Y-86990925D01*
X149510316Y-86994568D01*
X149576832Y-87048818D01*
X149595980Y-87061687D01*
X149632278Y-87081486D01*
X149639850Y-87086348D01*
X149649816Y-87093805D01*
X149656630Y-87099708D01*
X149729099Y-87172177D01*
X149738483Y-87180657D01*
X149960142Y-87361438D01*
X149964854Y-87365769D01*
X149966727Y-87367681D01*
X149967942Y-87368905D01*
X149969948Y-87370897D01*
X149974109Y-87375454D01*
X150343474Y-87821939D01*
X150345979Y-87825612D01*
X150346539Y-87826273D01*
X150347160Y-87826875D01*
X150347864Y-87827837D01*
X150349299Y-87830030D01*
X150350269Y-87831490D01*
X150351876Y-87833873D01*
X150355076Y-87839156D01*
X150521391Y-88146749D01*
X150528573Y-88158447D01*
X150560562Y-88204655D01*
X150563570Y-88209444D01*
X150567427Y-88216242D01*
X150569985Y-88221260D01*
X150612024Y-88313747D01*
X150615864Y-88321475D01*
X150627522Y-88343036D01*
X150630183Y-88349229D01*
X150631560Y-88351776D01*
X150631563Y-88351780D01*
X150631565Y-88351785D01*
X150632055Y-88352706D01*
X150633114Y-88355328D01*
X150634660Y-88357538D01*
X150634808Y-88357904D01*
X150635463Y-88359493D01*
X150636605Y-88362210D01*
X150638719Y-88368020D01*
X150640701Y-88374423D01*
X150646312Y-88389177D01*
X150817557Y-88765917D01*
X150819835Y-88771664D01*
X150821901Y-88777725D01*
X150824455Y-88787963D01*
X150824941Y-88790965D01*
X150825490Y-88795316D01*
X150875167Y-89341756D01*
X150875360Y-89344588D01*
X150875540Y-89348570D01*
X150875605Y-89351416D01*
X150875605Y-89845836D01*
X150875047Y-89854203D01*
X150873508Y-89865696D01*
X150871847Y-89873902D01*
X150833639Y-90014000D01*
X150829750Y-90035559D01*
X150822775Y-90112193D01*
X150821638Y-90118025D01*
X150821619Y-90118223D01*
X150821554Y-90118932D01*
X150821554Y-90122194D01*
X150821385Y-90123314D01*
X150820857Y-90125888D01*
X150820522Y-90127583D01*
X150819979Y-90130431D01*
X150818529Y-90136422D01*
X150656908Y-90685561D01*
X150654473Y-90691688D01*
X150653502Y-90694988D01*
X150653501Y-90694995D01*
X150653498Y-90695002D01*
X150653198Y-90695998D01*
X150652178Y-90698424D01*
X150651698Y-90701127D01*
X150651474Y-90701659D01*
X150650806Y-90703281D01*
X150649731Y-90705943D01*
X150647138Y-90711553D01*
X150593016Y-90815080D01*
X150585207Y-90833463D01*
X150523042Y-91019958D01*
X150519864Y-91027728D01*
X150514778Y-91038126D01*
X150510600Y-91045401D01*
X150114615Y-91639377D01*
X150110916Y-91644375D01*
X150107466Y-91648587D01*
X150103124Y-91652934D01*
X150103088Y-91652978D01*
X150103044Y-91653014D01*
X150098704Y-91657359D01*
X150094388Y-91660901D01*
X150089356Y-91664630D01*
X149866586Y-91813143D01*
X149855576Y-91821393D01*
X149549020Y-92078623D01*
X149544302Y-92081809D01*
X149543713Y-92082291D01*
X149541120Y-92084876D01*
X149539887Y-92085793D01*
X149537700Y-92087246D01*
X149536232Y-92088236D01*
X149533898Y-92089834D01*
X149528641Y-92093069D01*
X149249006Y-92246800D01*
X149234225Y-92256338D01*
X149097814Y-92358646D01*
X149092685Y-92362113D01*
X149087786Y-92365085D01*
X149077121Y-92370250D01*
X149072587Y-92371940D01*
X149067180Y-92373680D01*
X148754232Y-92459029D01*
X148749325Y-92460476D01*
X148453942Y-92554178D01*
X148447886Y-92555465D01*
X148446422Y-92555929D01*
X148446413Y-92555933D01*
X148446403Y-92555935D01*
X148445412Y-92556242D01*
X148444754Y-92556372D01*
X148442096Y-92557515D01*
X148439768Y-92557976D01*
X148438065Y-92558326D01*
X148435220Y-92558931D01*
X148429124Y-92559918D01*
X147852232Y-92624627D01*
X147848777Y-92624807D01*
X147848307Y-92624832D01*
X147839360Y-92625332D01*
X147802507Y-92625589D01*
X147794583Y-92625173D01*
X147792872Y-92624950D01*
X147789823Y-92624592D01*
X147789519Y-92624560D01*
X147785733Y-92623683D01*
X147782643Y-92623008D01*
X147778503Y-92622159D01*
X147778483Y-92622152D01*
X147775435Y-92621166D01*
X147775169Y-92621084D01*
X147771751Y-92619540D01*
X147768704Y-92618212D01*
X147764898Y-92616614D01*
X147764876Y-92616601D01*
X147762022Y-92615009D01*
X147761805Y-92614892D01*
X147758792Y-92612738D01*
X147755971Y-92610780D01*
X147752609Y-92608514D01*
X147752607Y-92608512D01*
X147750028Y-92606319D01*
X147749896Y-92606210D01*
X147747370Y-92603520D01*
X147744931Y-92600994D01*
X147742115Y-92598160D01*
X147739962Y-92595442D01*
X147739925Y-92595396D01*
X147737989Y-92592294D01*
X147736055Y-92589292D01*
X147733842Y-92585961D01*
X147732240Y-92582840D01*
X147732234Y-92582828D01*
X147730948Y-92579429D01*
X147729604Y-92576028D01*
X147728097Y-92572371D01*
X147727130Y-92568984D01*
X147727052Y-92568726D01*
X147726027Y-92562780D01*
X147725459Y-92559715D01*
X147725043Y-92557617D01*
X147724754Y-92553936D01*
X147724712Y-92553464D01*
X147724395Y-92546960D01*
X147724395Y-86557096D01*
X147724914Y-86552658D01*
X147724915Y-86552626D01*
X147724620Y-86548221D01*
X147724706Y-86546763D01*
X147725139Y-86544686D01*
X147725786Y-86538541D01*
X147725787Y-86538429D01*
X147726494Y-86535095D01*
X147726646Y-86534367D01*
X147727307Y-86531157D01*
X147727340Y-86530845D01*
X147727609Y-86530212D01*
X147729429Y-86524332D01*
X147729459Y-86524188D01*
X147730774Y-86521118D01*
X147731099Y-86520353D01*
X147732356Y-86517365D01*
X147732434Y-86517113D01*
X147732834Y-86516526D01*
X147735759Y-86511116D01*
X147735837Y-86510931D01*
X147737625Y-86508322D01*
X147738207Y-86507465D01*
X147740058Y-86504716D01*
X147740117Y-86504606D01*
X147740615Y-86504115D01*
X147744516Y-86499400D01*
X147744610Y-86499261D01*
X147747123Y-86496800D01*
X147747752Y-86496180D01*
X147749931Y-86494016D01*
X147750072Y-86493845D01*
X147750629Y-86493478D01*
X147755413Y-86489577D01*
X147755524Y-86489467D01*
X147758099Y-86487782D01*
X147758850Y-86487286D01*
X147761769Y-86485346D01*
X147761929Y-86485215D01*
X147762557Y-86484959D01*
X147768015Y-86482057D01*
X147768111Y-86481993D01*
X147771003Y-86480824D01*
X147771765Y-86480513D01*
X147775018Y-86479173D01*
X147775242Y-86479054D01*
X147775903Y-86478925D01*
X147781816Y-86477140D01*
X147782011Y-86477059D01*
X147785232Y-86476448D01*
X147786272Y-86476246D01*
X147789348Y-86475635D01*
X147789485Y-86475593D01*
X147790193Y-86475596D01*
X147796327Y-86474994D01*
X147798132Y-86474636D01*
X147803055Y-86474395D01*
X147845387Y-86474395D01*
X147850352Y-86474920D01*
X147850352Y-86474920D01*
G37*
G36*
X184705417Y-86374827D02*
X184707128Y-86375050D01*
X184710177Y-86375408D01*
X184710481Y-86375440D01*
X184714267Y-86376317D01*
X184717357Y-86376992D01*
X184721497Y-86377841D01*
X184721517Y-86377848D01*
X184724565Y-86378834D01*
X184724831Y-86378916D01*
X184728249Y-86380460D01*
X184731296Y-86381788D01*
X184735102Y-86383386D01*
X184735124Y-86383399D01*
X184737978Y-86384991D01*
X184738195Y-86385108D01*
X184741208Y-86387262D01*
X184744029Y-86389220D01*
X184747391Y-86391486D01*
X184747393Y-86391488D01*
X184749972Y-86393681D01*
X184750104Y-86393790D01*
X184752630Y-86396480D01*
X184755069Y-86399006D01*
X184757885Y-86401840D01*
X184760038Y-86404558D01*
X184760075Y-86404604D01*
X184762011Y-86407706D01*
X184763945Y-86410708D01*
X184766157Y-86414037D01*
X184767760Y-86417160D01*
X184767766Y-86417171D01*
X184769052Y-86420571D01*
X184770396Y-86423972D01*
X184771903Y-86427629D01*
X184772870Y-86431016D01*
X184772948Y-86431274D01*
X184773973Y-86437220D01*
X184774541Y-86440285D01*
X184774957Y-86442383D01*
X184775246Y-86446064D01*
X184775288Y-86446536D01*
X184775605Y-86453040D01*
X184775605Y-92442904D01*
X184775086Y-92447342D01*
X184775085Y-92447374D01*
X184775380Y-92451779D01*
X184775294Y-92453237D01*
X184774861Y-92455314D01*
X184774214Y-92461459D01*
X184774213Y-92461571D01*
X184773506Y-92464905D01*
X184773354Y-92465633D01*
X184772693Y-92468843D01*
X184772660Y-92469155D01*
X184772391Y-92469788D01*
X184770571Y-92475668D01*
X184770541Y-92475812D01*
X184769226Y-92478882D01*
X184768901Y-92479647D01*
X184767644Y-92482635D01*
X184767566Y-92482887D01*
X184767166Y-92483474D01*
X184764241Y-92488884D01*
X184764163Y-92489069D01*
X184762375Y-92491678D01*
X184761793Y-92492535D01*
X184759942Y-92495284D01*
X184759883Y-92495394D01*
X184759385Y-92495885D01*
X184755484Y-92500600D01*
X184755389Y-92500741D01*
X184752894Y-92503184D01*
X184752260Y-92503809D01*
X184750068Y-92505986D01*
X184749929Y-92506154D01*
X184749371Y-92506522D01*
X184744587Y-92510423D01*
X184744476Y-92510533D01*
X184741901Y-92512218D01*
X184741150Y-92512714D01*
X184738231Y-92514654D01*
X184738071Y-92514785D01*
X184737443Y-92515041D01*
X184731985Y-92517943D01*
X184731889Y-92518007D01*
X184728997Y-92519176D01*
X184728235Y-92519487D01*
X184724982Y-92520827D01*
X184724758Y-92520946D01*
X184724097Y-92521075D01*
X184718184Y-92522860D01*
X184717989Y-92522941D01*
X184714768Y-92523552D01*
X184713728Y-92523754D01*
X184710652Y-92524365D01*
X184710515Y-92524407D01*
X184709807Y-92524404D01*
X184703673Y-92525006D01*
X184701868Y-92525364D01*
X184696945Y-92525605D01*
X184654613Y-92525605D01*
X184649648Y-92525080D01*
X184649532Y-92525079D01*
X184646967Y-92525309D01*
X184645648Y-92525231D01*
X184638733Y-92524455D01*
X184628077Y-92522452D01*
X184613755Y-92518871D01*
X184595634Y-92515735D01*
X184111916Y-92468306D01*
X184105592Y-92467305D01*
X184103032Y-92466761D01*
X184101326Y-92466410D01*
X184098496Y-92465849D01*
X184092511Y-92464357D01*
X183539607Y-92297426D01*
X183534517Y-92295343D01*
X183533745Y-92295114D01*
X183531723Y-92294725D01*
X183531598Y-92294662D01*
X183530839Y-92294383D01*
X183528457Y-92293362D01*
X183526853Y-92292688D01*
X183524166Y-92291580D01*
X183518596Y-92288959D01*
X183006393Y-92016616D01*
X183001176Y-92013264D01*
X183000344Y-92012854D01*
X183000112Y-92012767D01*
X182998518Y-92011675D01*
X182997055Y-92010689D01*
X182994626Y-92009075D01*
X182989684Y-92005432D01*
X182923168Y-91951182D01*
X182904020Y-91938313D01*
X182867722Y-91918514D01*
X182860150Y-91913652D01*
X182850184Y-91906195D01*
X182843370Y-91900292D01*
X182770901Y-91827823D01*
X182761517Y-91819343D01*
X182539858Y-91638562D01*
X182535146Y-91634231D01*
X182533273Y-91632319D01*
X182532058Y-91631095D01*
X182530052Y-91629103D01*
X182525891Y-91624546D01*
X182156526Y-91178061D01*
X182154021Y-91174388D01*
X182153461Y-91173727D01*
X182152840Y-91173125D01*
X182152136Y-91172163D01*
X182150701Y-91169970D01*
X182149731Y-91168510D01*
X182148124Y-91166127D01*
X182144924Y-91160844D01*
X181978609Y-90853251D01*
X181971427Y-90841553D01*
X181939438Y-90795345D01*
X181936430Y-90790556D01*
X181932573Y-90783758D01*
X181930015Y-90778740D01*
X181887976Y-90686253D01*
X181884136Y-90678525D01*
X181872478Y-90656964D01*
X181869817Y-90650771D01*
X181868440Y-90648224D01*
X181868437Y-90648220D01*
X181868435Y-90648215D01*
X181867945Y-90647294D01*
X181866886Y-90644672D01*
X181865340Y-90642462D01*
X181865192Y-90642096D01*
X181864537Y-90640507D01*
X181863395Y-90637790D01*
X181861281Y-90631980D01*
X181859299Y-90625577D01*
X181853688Y-90610823D01*
X181682443Y-90234083D01*
X181680165Y-90228336D01*
X181678099Y-90222275D01*
X181675545Y-90212037D01*
X181675059Y-90209035D01*
X181674510Y-90204684D01*
X181624833Y-89658244D01*
X181624640Y-89655412D01*
X181624460Y-89651430D01*
X181624395Y-89648580D01*
X181624395Y-89154164D01*
X181624953Y-89145797D01*
X181626492Y-89134304D01*
X181628153Y-89126098D01*
X181666361Y-88986000D01*
X181670250Y-88964441D01*
X181677225Y-88887807D01*
X181678362Y-88881975D01*
X181678381Y-88881777D01*
X181678446Y-88881068D01*
X181678446Y-88877806D01*
X181678615Y-88876686D01*
X181679143Y-88874112D01*
X181679478Y-88872417D01*
X181680021Y-88869569D01*
X181681471Y-88863578D01*
X181843092Y-88314439D01*
X181845527Y-88308312D01*
X181846498Y-88305012D01*
X181846499Y-88305005D01*
X181846502Y-88304998D01*
X181846802Y-88304002D01*
X181847822Y-88301576D01*
X181848302Y-88298873D01*
X181848526Y-88298341D01*
X181849194Y-88296719D01*
X181850269Y-88294057D01*
X181852862Y-88288447D01*
X181906984Y-88184920D01*
X181914793Y-88166537D01*
X181976958Y-87980042D01*
X181980136Y-87972272D01*
X181985222Y-87961874D01*
X181989400Y-87954599D01*
X182385385Y-87360623D01*
X182389084Y-87355625D01*
X182392534Y-87351413D01*
X182396876Y-87347066D01*
X182396912Y-87347022D01*
X182396956Y-87346986D01*
X182401296Y-87342641D01*
X182405612Y-87339099D01*
X182410644Y-87335370D01*
X182633414Y-87186857D01*
X182644424Y-87178607D01*
X182950980Y-86921377D01*
X182955698Y-86918191D01*
X182956287Y-86917709D01*
X182958880Y-86915124D01*
X182960113Y-86914207D01*
X182962300Y-86912754D01*
X182963768Y-86911764D01*
X182966102Y-86910166D01*
X182971359Y-86906931D01*
X183250994Y-86753200D01*
X183265775Y-86743662D01*
X183402186Y-86641354D01*
X183407315Y-86637887D01*
X183412214Y-86634915D01*
X183422879Y-86629750D01*
X183427413Y-86628060D01*
X183432820Y-86626320D01*
X183745768Y-86540971D01*
X183750675Y-86539524D01*
X184046058Y-86445822D01*
X184052114Y-86444535D01*
X184053578Y-86444071D01*
X184053587Y-86444067D01*
X184053597Y-86444065D01*
X184054588Y-86443758D01*
X184055246Y-86443628D01*
X184057904Y-86442485D01*
X184060232Y-86442024D01*
X184061935Y-86441674D01*
X184064780Y-86441069D01*
X184070876Y-86440082D01*
X184647768Y-86375373D01*
X184651223Y-86375193D01*
X184651693Y-86375168D01*
X184660640Y-86374668D01*
X184697493Y-86374411D01*
X184705417Y-86374827D01*
X184705417Y-86374827D01*
G37*
G36*
X168705417Y-86374827D02*
X168707128Y-86375050D01*
X168710177Y-86375408D01*
X168710481Y-86375440D01*
X168714267Y-86376317D01*
X168717357Y-86376992D01*
X168721497Y-86377841D01*
X168721517Y-86377848D01*
X168724565Y-86378834D01*
X168724831Y-86378916D01*
X168728249Y-86380460D01*
X168731296Y-86381788D01*
X168735102Y-86383386D01*
X168735124Y-86383399D01*
X168737978Y-86384991D01*
X168738195Y-86385108D01*
X168741208Y-86387262D01*
X168744029Y-86389220D01*
X168747391Y-86391486D01*
X168747393Y-86391488D01*
X168749972Y-86393681D01*
X168750104Y-86393790D01*
X168752630Y-86396480D01*
X168755069Y-86399006D01*
X168757885Y-86401840D01*
X168760038Y-86404558D01*
X168760075Y-86404604D01*
X168762011Y-86407706D01*
X168763945Y-86410708D01*
X168766157Y-86414037D01*
X168767760Y-86417160D01*
X168767766Y-86417171D01*
X168769052Y-86420571D01*
X168770396Y-86423972D01*
X168771903Y-86427629D01*
X168772870Y-86431016D01*
X168772948Y-86431274D01*
X168773973Y-86437220D01*
X168774541Y-86440285D01*
X168774957Y-86442383D01*
X168775246Y-86446064D01*
X168775288Y-86446536D01*
X168775605Y-86453040D01*
X168775605Y-92442904D01*
X168775086Y-92447342D01*
X168775085Y-92447374D01*
X168775380Y-92451779D01*
X168775294Y-92453237D01*
X168774861Y-92455314D01*
X168774214Y-92461459D01*
X168774213Y-92461571D01*
X168773506Y-92464905D01*
X168773354Y-92465633D01*
X168772693Y-92468843D01*
X168772660Y-92469155D01*
X168772391Y-92469788D01*
X168770571Y-92475668D01*
X168770541Y-92475812D01*
X168769226Y-92478882D01*
X168768901Y-92479647D01*
X168767644Y-92482635D01*
X168767566Y-92482887D01*
X168767166Y-92483474D01*
X168764241Y-92488884D01*
X168764163Y-92489069D01*
X168762375Y-92491678D01*
X168761793Y-92492535D01*
X168759942Y-92495284D01*
X168759883Y-92495394D01*
X168759385Y-92495885D01*
X168755484Y-92500600D01*
X168755389Y-92500741D01*
X168752894Y-92503184D01*
X168752260Y-92503809D01*
X168750068Y-92505986D01*
X168749929Y-92506154D01*
X168749371Y-92506522D01*
X168744587Y-92510423D01*
X168744476Y-92510533D01*
X168741901Y-92512218D01*
X168741150Y-92512714D01*
X168738231Y-92514654D01*
X168738071Y-92514785D01*
X168737443Y-92515041D01*
X168731985Y-92517943D01*
X168731889Y-92518007D01*
X168728997Y-92519176D01*
X168728235Y-92519487D01*
X168724982Y-92520827D01*
X168724758Y-92520946D01*
X168724097Y-92521075D01*
X168718184Y-92522860D01*
X168717989Y-92522941D01*
X168714768Y-92523552D01*
X168713728Y-92523754D01*
X168710652Y-92524365D01*
X168710515Y-92524407D01*
X168709807Y-92524404D01*
X168703673Y-92525006D01*
X168701868Y-92525364D01*
X168696945Y-92525605D01*
X168654613Y-92525605D01*
X168649648Y-92525080D01*
X168649532Y-92525079D01*
X168646967Y-92525309D01*
X168645648Y-92525231D01*
X168638733Y-92524455D01*
X168628077Y-92522452D01*
X168613755Y-92518871D01*
X168595634Y-92515735D01*
X168111916Y-92468306D01*
X168105592Y-92467305D01*
X168103032Y-92466761D01*
X168101326Y-92466410D01*
X168098496Y-92465849D01*
X168092511Y-92464357D01*
X167539607Y-92297426D01*
X167534517Y-92295343D01*
X167533745Y-92295114D01*
X167531723Y-92294725D01*
X167531598Y-92294662D01*
X167530839Y-92294383D01*
X167528457Y-92293362D01*
X167526853Y-92292688D01*
X167524166Y-92291580D01*
X167518596Y-92288959D01*
X167006393Y-92016616D01*
X167001176Y-92013264D01*
X167000344Y-92012854D01*
X167000112Y-92012767D01*
X166998518Y-92011675D01*
X166997055Y-92010689D01*
X166994626Y-92009075D01*
X166989684Y-92005432D01*
X166923168Y-91951182D01*
X166904020Y-91938313D01*
X166867722Y-91918514D01*
X166860150Y-91913652D01*
X166850184Y-91906195D01*
X166843370Y-91900292D01*
X166770901Y-91827823D01*
X166761517Y-91819343D01*
X166539858Y-91638562D01*
X166535146Y-91634231D01*
X166533273Y-91632319D01*
X166532058Y-91631095D01*
X166530052Y-91629103D01*
X166525891Y-91624546D01*
X166156526Y-91178061D01*
X166154021Y-91174388D01*
X166153461Y-91173727D01*
X166152840Y-91173125D01*
X166152136Y-91172163D01*
X166150701Y-91169970D01*
X166149731Y-91168510D01*
X166148124Y-91166127D01*
X166144924Y-91160844D01*
X165978609Y-90853251D01*
X165971427Y-90841553D01*
X165939438Y-90795345D01*
X165936430Y-90790556D01*
X165932573Y-90783758D01*
X165930015Y-90778740D01*
X165887976Y-90686253D01*
X165884136Y-90678525D01*
X165872478Y-90656964D01*
X165869817Y-90650771D01*
X165868440Y-90648224D01*
X165868437Y-90648220D01*
X165868435Y-90648215D01*
X165867945Y-90647294D01*
X165866886Y-90644672D01*
X165865340Y-90642462D01*
X165865192Y-90642096D01*
X165864537Y-90640507D01*
X165863395Y-90637790D01*
X165861281Y-90631980D01*
X165859299Y-90625577D01*
X165853688Y-90610823D01*
X165682443Y-90234083D01*
X165680165Y-90228336D01*
X165678099Y-90222275D01*
X165675545Y-90212037D01*
X165675059Y-90209035D01*
X165674510Y-90204684D01*
X165624833Y-89658244D01*
X165624640Y-89655412D01*
X165624460Y-89651430D01*
X165624395Y-89648580D01*
X165624395Y-89154164D01*
X165624953Y-89145797D01*
X165626492Y-89134304D01*
X165628153Y-89126098D01*
X165666361Y-88986000D01*
X165670250Y-88964441D01*
X165677225Y-88887807D01*
X165678362Y-88881975D01*
X165678381Y-88881777D01*
X165678446Y-88881068D01*
X165678446Y-88877806D01*
X165678615Y-88876686D01*
X165679143Y-88874112D01*
X165679478Y-88872417D01*
X165680021Y-88869569D01*
X165681471Y-88863578D01*
X165843092Y-88314439D01*
X165845527Y-88308312D01*
X165846498Y-88305012D01*
X165846499Y-88305005D01*
X165846502Y-88304998D01*
X165846802Y-88304002D01*
X165847822Y-88301576D01*
X165848302Y-88298873D01*
X165848526Y-88298341D01*
X165849194Y-88296719D01*
X165850269Y-88294057D01*
X165852862Y-88288447D01*
X165906984Y-88184920D01*
X165914793Y-88166537D01*
X165976958Y-87980042D01*
X165980136Y-87972272D01*
X165985222Y-87961874D01*
X165989400Y-87954599D01*
X166385385Y-87360623D01*
X166389084Y-87355625D01*
X166392534Y-87351413D01*
X166396876Y-87347066D01*
X166396912Y-87347022D01*
X166396956Y-87346986D01*
X166401296Y-87342641D01*
X166405612Y-87339099D01*
X166410644Y-87335370D01*
X166633414Y-87186857D01*
X166644424Y-87178607D01*
X166950980Y-86921377D01*
X166955698Y-86918191D01*
X166956287Y-86917709D01*
X166958880Y-86915124D01*
X166960113Y-86914207D01*
X166962300Y-86912754D01*
X166963768Y-86911764D01*
X166966102Y-86910166D01*
X166971359Y-86906931D01*
X167250994Y-86753200D01*
X167265775Y-86743662D01*
X167402186Y-86641354D01*
X167407315Y-86637887D01*
X167412214Y-86634915D01*
X167422879Y-86629750D01*
X167427413Y-86628060D01*
X167432820Y-86626320D01*
X167745768Y-86540971D01*
X167750675Y-86539524D01*
X168046058Y-86445822D01*
X168052114Y-86444535D01*
X168053578Y-86444071D01*
X168053587Y-86444067D01*
X168053597Y-86444065D01*
X168054588Y-86443758D01*
X168055246Y-86443628D01*
X168057904Y-86442485D01*
X168060232Y-86442024D01*
X168061935Y-86441674D01*
X168064780Y-86441069D01*
X168070876Y-86440082D01*
X168647768Y-86375373D01*
X168651223Y-86375193D01*
X168651693Y-86375168D01*
X168660640Y-86374668D01*
X168697493Y-86374411D01*
X168705417Y-86374827D01*
X168705417Y-86374827D01*
G37*
G36*
X185350352Y-86374920D02*
X185350468Y-86374921D01*
X185353033Y-86374691D01*
X185354352Y-86374769D01*
X185361267Y-86375545D01*
X185371923Y-86377548D01*
X185386245Y-86381129D01*
X185404366Y-86384265D01*
X185888084Y-86431694D01*
X185894408Y-86432695D01*
X185896968Y-86433239D01*
X185898674Y-86433590D01*
X185901504Y-86434151D01*
X185907489Y-86435643D01*
X186460393Y-86602574D01*
X186465483Y-86604657D01*
X186466255Y-86604886D01*
X186468277Y-86605275D01*
X186468402Y-86605338D01*
X186469161Y-86605617D01*
X186471543Y-86606638D01*
X186473147Y-86607312D01*
X186475834Y-86608420D01*
X186481404Y-86611041D01*
X186993607Y-86883384D01*
X186998824Y-86886736D01*
X186999656Y-86887146D01*
X186999888Y-86887233D01*
X187001482Y-86888325D01*
X187002945Y-86889311D01*
X187005374Y-86890925D01*
X187010316Y-86894568D01*
X187076832Y-86948818D01*
X187095980Y-86961687D01*
X187132278Y-86981486D01*
X187139850Y-86986348D01*
X187149816Y-86993805D01*
X187156630Y-86999708D01*
X187229099Y-87072177D01*
X187238483Y-87080657D01*
X187460142Y-87261438D01*
X187464854Y-87265769D01*
X187466727Y-87267681D01*
X187467942Y-87268905D01*
X187469948Y-87270897D01*
X187474109Y-87275454D01*
X187843474Y-87721939D01*
X187845979Y-87725612D01*
X187846539Y-87726273D01*
X187847160Y-87726875D01*
X187847864Y-87727837D01*
X187849299Y-87730030D01*
X187850269Y-87731490D01*
X187851876Y-87733873D01*
X187855076Y-87739156D01*
X188021391Y-88046749D01*
X188028573Y-88058447D01*
X188060562Y-88104655D01*
X188063570Y-88109444D01*
X188067427Y-88116242D01*
X188069985Y-88121260D01*
X188112024Y-88213747D01*
X188115864Y-88221475D01*
X188127522Y-88243036D01*
X188130183Y-88249229D01*
X188131560Y-88251776D01*
X188131563Y-88251780D01*
X188131565Y-88251785D01*
X188132055Y-88252706D01*
X188133114Y-88255328D01*
X188134660Y-88257538D01*
X188134808Y-88257904D01*
X188135463Y-88259493D01*
X188136605Y-88262210D01*
X188138719Y-88268020D01*
X188140701Y-88274423D01*
X188146312Y-88289177D01*
X188317557Y-88665917D01*
X188319835Y-88671664D01*
X188321901Y-88677725D01*
X188324455Y-88687963D01*
X188324941Y-88690965D01*
X188325490Y-88695316D01*
X188375167Y-89241756D01*
X188375360Y-89244588D01*
X188375540Y-89248570D01*
X188375605Y-89251420D01*
X188375605Y-89745836D01*
X188375047Y-89754203D01*
X188373508Y-89765696D01*
X188371847Y-89773902D01*
X188333639Y-89914000D01*
X188329750Y-89935559D01*
X188322775Y-90012193D01*
X188321638Y-90018025D01*
X188321619Y-90018223D01*
X188321554Y-90018932D01*
X188321554Y-90022194D01*
X188321385Y-90023314D01*
X188320857Y-90025888D01*
X188320522Y-90027583D01*
X188319979Y-90030431D01*
X188318529Y-90036422D01*
X188156908Y-90585561D01*
X188154473Y-90591688D01*
X188153502Y-90594988D01*
X188153501Y-90594995D01*
X188153498Y-90595002D01*
X188153198Y-90595998D01*
X188152178Y-90598424D01*
X188151698Y-90601127D01*
X188151474Y-90601659D01*
X188150806Y-90603281D01*
X188149731Y-90605943D01*
X188147138Y-90611553D01*
X188093016Y-90715080D01*
X188085207Y-90733463D01*
X188023042Y-90919958D01*
X188019864Y-90927728D01*
X188014778Y-90938126D01*
X188010600Y-90945401D01*
X187614615Y-91539377D01*
X187610916Y-91544375D01*
X187607466Y-91548587D01*
X187603124Y-91552934D01*
X187603088Y-91552978D01*
X187603044Y-91553014D01*
X187598704Y-91557359D01*
X187594388Y-91560901D01*
X187589356Y-91564630D01*
X187366586Y-91713143D01*
X187355576Y-91721393D01*
X187049020Y-91978623D01*
X187044302Y-91981809D01*
X187043713Y-91982291D01*
X187041120Y-91984876D01*
X187039887Y-91985793D01*
X187037700Y-91987246D01*
X187036232Y-91988236D01*
X187033898Y-91989834D01*
X187028641Y-91993069D01*
X186749006Y-92146800D01*
X186734225Y-92156338D01*
X186597814Y-92258646D01*
X186592685Y-92262113D01*
X186587786Y-92265085D01*
X186577121Y-92270250D01*
X186572587Y-92271940D01*
X186567180Y-92273680D01*
X186254232Y-92359029D01*
X186249325Y-92360476D01*
X185953942Y-92454178D01*
X185947886Y-92455465D01*
X185946422Y-92455929D01*
X185946413Y-92455933D01*
X185946403Y-92455935D01*
X185945412Y-92456242D01*
X185944754Y-92456372D01*
X185942096Y-92457515D01*
X185939768Y-92457976D01*
X185938065Y-92458326D01*
X185935220Y-92458931D01*
X185929124Y-92459918D01*
X185352232Y-92524627D01*
X185348777Y-92524807D01*
X185348307Y-92524832D01*
X185339360Y-92525332D01*
X185302507Y-92525589D01*
X185294583Y-92525173D01*
X185292872Y-92524950D01*
X185289823Y-92524592D01*
X185289519Y-92524560D01*
X185285733Y-92523683D01*
X185282643Y-92523008D01*
X185278503Y-92522159D01*
X185278483Y-92522152D01*
X185275435Y-92521166D01*
X185275169Y-92521084D01*
X185271751Y-92519540D01*
X185268704Y-92518212D01*
X185264898Y-92516614D01*
X185264876Y-92516601D01*
X185262022Y-92515009D01*
X185261805Y-92514892D01*
X185258792Y-92512738D01*
X185255971Y-92510780D01*
X185252609Y-92508514D01*
X185252607Y-92508512D01*
X185250028Y-92506319D01*
X185249896Y-92506210D01*
X185247370Y-92503520D01*
X185244931Y-92500994D01*
X185242115Y-92498160D01*
X185239962Y-92495442D01*
X185239925Y-92495396D01*
X185237989Y-92492294D01*
X185236055Y-92489292D01*
X185233842Y-92485961D01*
X185232240Y-92482840D01*
X185232234Y-92482828D01*
X185230948Y-92479429D01*
X185229604Y-92476028D01*
X185228097Y-92472371D01*
X185227130Y-92468984D01*
X185227052Y-92468726D01*
X185226027Y-92462780D01*
X185225459Y-92459715D01*
X185225043Y-92457617D01*
X185224754Y-92453936D01*
X185224712Y-92453464D01*
X185224395Y-92446951D01*
X185224395Y-86457096D01*
X185224914Y-86452658D01*
X185224915Y-86452626D01*
X185224620Y-86448221D01*
X185224706Y-86446763D01*
X185225139Y-86444686D01*
X185225786Y-86438541D01*
X185225787Y-86438429D01*
X185226494Y-86435095D01*
X185226646Y-86434367D01*
X185227307Y-86431157D01*
X185227340Y-86430845D01*
X185227609Y-86430212D01*
X185229429Y-86424332D01*
X185229459Y-86424188D01*
X185230774Y-86421118D01*
X185231099Y-86420353D01*
X185232356Y-86417365D01*
X185232434Y-86417113D01*
X185232834Y-86416526D01*
X185235759Y-86411116D01*
X185235837Y-86410931D01*
X185237625Y-86408322D01*
X185238207Y-86407465D01*
X185240058Y-86404716D01*
X185240117Y-86404606D01*
X185240615Y-86404115D01*
X185244516Y-86399400D01*
X185244610Y-86399261D01*
X185247123Y-86396800D01*
X185247752Y-86396180D01*
X185249931Y-86394016D01*
X185250072Y-86393845D01*
X185250629Y-86393478D01*
X185255413Y-86389577D01*
X185255524Y-86389467D01*
X185258099Y-86387782D01*
X185258850Y-86387286D01*
X185261769Y-86385346D01*
X185261929Y-86385215D01*
X185262557Y-86384959D01*
X185268015Y-86382057D01*
X185268111Y-86381993D01*
X185271003Y-86380824D01*
X185271765Y-86380513D01*
X185275018Y-86379173D01*
X185275242Y-86379054D01*
X185275903Y-86378925D01*
X185281816Y-86377140D01*
X185282011Y-86377059D01*
X185285232Y-86376448D01*
X185286272Y-86376246D01*
X185289348Y-86375635D01*
X185289485Y-86375593D01*
X185290193Y-86375596D01*
X185296327Y-86374994D01*
X185298132Y-86374636D01*
X185303055Y-86374395D01*
X185345387Y-86374395D01*
X185350352Y-86374920D01*
X185350352Y-86374920D01*
G37*
G36*
X169350352Y-86374920D02*
X169350468Y-86374921D01*
X169353033Y-86374691D01*
X169354352Y-86374769D01*
X169361267Y-86375545D01*
X169371923Y-86377548D01*
X169386245Y-86381129D01*
X169404366Y-86384265D01*
X169888084Y-86431694D01*
X169894408Y-86432695D01*
X169896968Y-86433239D01*
X169898674Y-86433590D01*
X169901504Y-86434151D01*
X169907489Y-86435643D01*
X170460393Y-86602574D01*
X170465483Y-86604657D01*
X170466255Y-86604886D01*
X170468277Y-86605275D01*
X170468402Y-86605338D01*
X170469161Y-86605617D01*
X170471543Y-86606638D01*
X170473147Y-86607312D01*
X170475834Y-86608420D01*
X170481404Y-86611041D01*
X170993607Y-86883384D01*
X170998824Y-86886736D01*
X170999656Y-86887146D01*
X170999888Y-86887233D01*
X171001482Y-86888325D01*
X171002945Y-86889311D01*
X171005374Y-86890925D01*
X171010316Y-86894568D01*
X171076832Y-86948818D01*
X171095980Y-86961687D01*
X171132278Y-86981486D01*
X171139850Y-86986348D01*
X171149816Y-86993805D01*
X171156630Y-86999708D01*
X171229099Y-87072177D01*
X171238483Y-87080657D01*
X171460142Y-87261438D01*
X171464854Y-87265769D01*
X171466727Y-87267681D01*
X171467942Y-87268905D01*
X171469948Y-87270897D01*
X171474109Y-87275454D01*
X171843474Y-87721939D01*
X171845979Y-87725612D01*
X171846539Y-87726273D01*
X171847160Y-87726875D01*
X171847864Y-87727837D01*
X171849299Y-87730030D01*
X171850269Y-87731490D01*
X171851876Y-87733873D01*
X171855076Y-87739156D01*
X172021391Y-88046749D01*
X172028573Y-88058447D01*
X172060562Y-88104655D01*
X172063570Y-88109444D01*
X172067427Y-88116242D01*
X172069985Y-88121260D01*
X172112024Y-88213747D01*
X172115864Y-88221475D01*
X172127522Y-88243036D01*
X172130183Y-88249229D01*
X172131560Y-88251776D01*
X172131563Y-88251780D01*
X172131565Y-88251785D01*
X172132055Y-88252706D01*
X172133114Y-88255328D01*
X172134660Y-88257538D01*
X172134808Y-88257904D01*
X172135463Y-88259493D01*
X172136605Y-88262210D01*
X172138719Y-88268020D01*
X172140701Y-88274423D01*
X172146312Y-88289177D01*
X172317557Y-88665917D01*
X172319835Y-88671664D01*
X172321901Y-88677725D01*
X172324455Y-88687963D01*
X172324941Y-88690965D01*
X172325490Y-88695316D01*
X172375167Y-89241756D01*
X172375360Y-89244588D01*
X172375540Y-89248570D01*
X172375605Y-89251420D01*
X172375605Y-89745836D01*
X172375047Y-89754203D01*
X172373508Y-89765696D01*
X172371847Y-89773902D01*
X172333639Y-89914000D01*
X172329750Y-89935559D01*
X172322775Y-90012193D01*
X172321638Y-90018025D01*
X172321619Y-90018223D01*
X172321554Y-90018932D01*
X172321554Y-90022194D01*
X172321385Y-90023314D01*
X172320857Y-90025888D01*
X172320522Y-90027583D01*
X172319979Y-90030431D01*
X172318529Y-90036422D01*
X172156908Y-90585561D01*
X172154473Y-90591688D01*
X172153502Y-90594988D01*
X172153501Y-90594995D01*
X172153498Y-90595002D01*
X172153198Y-90595998D01*
X172152178Y-90598424D01*
X172151698Y-90601127D01*
X172151474Y-90601659D01*
X172150806Y-90603281D01*
X172149731Y-90605943D01*
X172147138Y-90611553D01*
X172093016Y-90715080D01*
X172085207Y-90733463D01*
X172023042Y-90919958D01*
X172019864Y-90927728D01*
X172014778Y-90938126D01*
X172010600Y-90945401D01*
X171614615Y-91539377D01*
X171610916Y-91544375D01*
X171607466Y-91548587D01*
X171603124Y-91552934D01*
X171603088Y-91552978D01*
X171603044Y-91553014D01*
X171598704Y-91557359D01*
X171594388Y-91560901D01*
X171589356Y-91564630D01*
X171366586Y-91713143D01*
X171355576Y-91721393D01*
X171049020Y-91978623D01*
X171044302Y-91981809D01*
X171043713Y-91982291D01*
X171041120Y-91984876D01*
X171039887Y-91985793D01*
X171037700Y-91987246D01*
X171036232Y-91988236D01*
X171033898Y-91989834D01*
X171028641Y-91993069D01*
X170749006Y-92146800D01*
X170734225Y-92156338D01*
X170597814Y-92258646D01*
X170592685Y-92262113D01*
X170587786Y-92265085D01*
X170577121Y-92270250D01*
X170572587Y-92271940D01*
X170567180Y-92273680D01*
X170254232Y-92359029D01*
X170249325Y-92360476D01*
X169953942Y-92454178D01*
X169947886Y-92455465D01*
X169946422Y-92455929D01*
X169946413Y-92455933D01*
X169946403Y-92455935D01*
X169945412Y-92456242D01*
X169944754Y-92456372D01*
X169942096Y-92457515D01*
X169939768Y-92457976D01*
X169938065Y-92458326D01*
X169935220Y-92458931D01*
X169929124Y-92459918D01*
X169352232Y-92524627D01*
X169348777Y-92524807D01*
X169348307Y-92524832D01*
X169339360Y-92525332D01*
X169302507Y-92525589D01*
X169294583Y-92525173D01*
X169292872Y-92524950D01*
X169289823Y-92524592D01*
X169289519Y-92524560D01*
X169285733Y-92523683D01*
X169282643Y-92523008D01*
X169278503Y-92522159D01*
X169278483Y-92522152D01*
X169275435Y-92521166D01*
X169275169Y-92521084D01*
X169271751Y-92519540D01*
X169268704Y-92518212D01*
X169264898Y-92516614D01*
X169264876Y-92516601D01*
X169262022Y-92515009D01*
X169261805Y-92514892D01*
X169258792Y-92512738D01*
X169255971Y-92510780D01*
X169252609Y-92508514D01*
X169252607Y-92508512D01*
X169250028Y-92506319D01*
X169249896Y-92506210D01*
X169247370Y-92503520D01*
X169244931Y-92500994D01*
X169242115Y-92498160D01*
X169239962Y-92495442D01*
X169239925Y-92495396D01*
X169237989Y-92492294D01*
X169236055Y-92489292D01*
X169233842Y-92485961D01*
X169232240Y-92482840D01*
X169232234Y-92482828D01*
X169230948Y-92479429D01*
X169229604Y-92476028D01*
X169228097Y-92472371D01*
X169227130Y-92468984D01*
X169227052Y-92468726D01*
X169226027Y-92462780D01*
X169225459Y-92459715D01*
X169225043Y-92457617D01*
X169224754Y-92453936D01*
X169224712Y-92453464D01*
X169224395Y-92446951D01*
X169224395Y-86457096D01*
X169224914Y-86452658D01*
X169224915Y-86452626D01*
X169224620Y-86448221D01*
X169224706Y-86446763D01*
X169225139Y-86444686D01*
X169225786Y-86438541D01*
X169225787Y-86438429D01*
X169226494Y-86435095D01*
X169226646Y-86434367D01*
X169227307Y-86431157D01*
X169227340Y-86430845D01*
X169227609Y-86430212D01*
X169229429Y-86424332D01*
X169229459Y-86424188D01*
X169230774Y-86421118D01*
X169231099Y-86420353D01*
X169232356Y-86417365D01*
X169232434Y-86417113D01*
X169232834Y-86416526D01*
X169235759Y-86411116D01*
X169235837Y-86410931D01*
X169237625Y-86408322D01*
X169238207Y-86407465D01*
X169240058Y-86404716D01*
X169240117Y-86404606D01*
X169240615Y-86404115D01*
X169244516Y-86399400D01*
X169244610Y-86399261D01*
X169247123Y-86396800D01*
X169247752Y-86396180D01*
X169249931Y-86394016D01*
X169250072Y-86393845D01*
X169250629Y-86393478D01*
X169255413Y-86389577D01*
X169255524Y-86389467D01*
X169258099Y-86387782D01*
X169258850Y-86387286D01*
X169261769Y-86385346D01*
X169261929Y-86385215D01*
X169262557Y-86384959D01*
X169268015Y-86382057D01*
X169268111Y-86381993D01*
X169271003Y-86380824D01*
X169271765Y-86380513D01*
X169275018Y-86379173D01*
X169275242Y-86379054D01*
X169275903Y-86378925D01*
X169281816Y-86377140D01*
X169282011Y-86377059D01*
X169285232Y-86376448D01*
X169286272Y-86376246D01*
X169289348Y-86375635D01*
X169289485Y-86375593D01*
X169290193Y-86375596D01*
X169296327Y-86374994D01*
X169298132Y-86374636D01*
X169303055Y-86374395D01*
X169345387Y-86374395D01*
X169350352Y-86374920D01*
X169350352Y-86374920D01*
G37*
G36*
X97947342Y-83724914D02*
X97947374Y-83724915D01*
X97951779Y-83724620D01*
X97953237Y-83724706D01*
X97955314Y-83725139D01*
X97961459Y-83725786D01*
X97961571Y-83725787D01*
X97964905Y-83726494D01*
X97965633Y-83726646D01*
X97968843Y-83727307D01*
X97969155Y-83727340D01*
X97969788Y-83727609D01*
X97975668Y-83729429D01*
X97975812Y-83729459D01*
X97978882Y-83730774D01*
X97979647Y-83731099D01*
X97982635Y-83732356D01*
X97982887Y-83732434D01*
X97983474Y-83732834D01*
X97988884Y-83735759D01*
X97989069Y-83735837D01*
X97991678Y-83737625D01*
X97992535Y-83738207D01*
X97995284Y-83740058D01*
X97995394Y-83740117D01*
X97995885Y-83740615D01*
X98000600Y-83744516D01*
X98000741Y-83744611D01*
X98003184Y-83747106D01*
X98003809Y-83747740D01*
X98005986Y-83749932D01*
X98006154Y-83750071D01*
X98006522Y-83750629D01*
X98010423Y-83755413D01*
X98010533Y-83755524D01*
X98012218Y-83758099D01*
X98012714Y-83758850D01*
X98014654Y-83761769D01*
X98014785Y-83761929D01*
X98015041Y-83762557D01*
X98017943Y-83768015D01*
X98018007Y-83768111D01*
X98019176Y-83771003D01*
X98019487Y-83771765D01*
X98020827Y-83775018D01*
X98020946Y-83775242D01*
X98021075Y-83775903D01*
X98022860Y-83781816D01*
X98022941Y-83782011D01*
X98023552Y-83785232D01*
X98023754Y-83786272D01*
X98024365Y-83789348D01*
X98024407Y-83789485D01*
X98024404Y-83790193D01*
X98025006Y-83796327D01*
X98025364Y-83798132D01*
X98025605Y-83803055D01*
X98025605Y-83845387D01*
X98025080Y-83850352D01*
X98025079Y-83850468D01*
X98025309Y-83853033D01*
X98025231Y-83854352D01*
X98024455Y-83861267D01*
X98022452Y-83871923D01*
X98018871Y-83886245D01*
X98015735Y-83904366D01*
X97968306Y-84388084D01*
X97967305Y-84394408D01*
X97966761Y-84396968D01*
X97966410Y-84398674D01*
X97965849Y-84401504D01*
X97964357Y-84407489D01*
X97797426Y-84960393D01*
X97795343Y-84965483D01*
X97795114Y-84966255D01*
X97794725Y-84968277D01*
X97794662Y-84968402D01*
X97794383Y-84969161D01*
X97793362Y-84971543D01*
X97792688Y-84973147D01*
X97791580Y-84975834D01*
X97788959Y-84981404D01*
X97516616Y-85493607D01*
X97513264Y-85498824D01*
X97512854Y-85499656D01*
X97512767Y-85499888D01*
X97511675Y-85501482D01*
X97510689Y-85502945D01*
X97509075Y-85505374D01*
X97505432Y-85510316D01*
X97451182Y-85576832D01*
X97438313Y-85595980D01*
X97418514Y-85632278D01*
X97413652Y-85639850D01*
X97406195Y-85649816D01*
X97400292Y-85656630D01*
X97327823Y-85729099D01*
X97319343Y-85738483D01*
X97138562Y-85960142D01*
X97134231Y-85964854D01*
X97132319Y-85966727D01*
X97131095Y-85967942D01*
X97129103Y-85969948D01*
X97124546Y-85974109D01*
X96678061Y-86343474D01*
X96674388Y-86345979D01*
X96673727Y-86346539D01*
X96673125Y-86347160D01*
X96672163Y-86347864D01*
X96669970Y-86349299D01*
X96668510Y-86350269D01*
X96666127Y-86351876D01*
X96660844Y-86355076D01*
X96353251Y-86521391D01*
X96341553Y-86528573D01*
X96295345Y-86560562D01*
X96290556Y-86563570D01*
X96283758Y-86567427D01*
X96278740Y-86569985D01*
X96186253Y-86612024D01*
X96178525Y-86615864D01*
X96156964Y-86627522D01*
X96150771Y-86630183D01*
X96148224Y-86631560D01*
X96148220Y-86631563D01*
X96148215Y-86631565D01*
X96147294Y-86632055D01*
X96144672Y-86633114D01*
X96142462Y-86634660D01*
X96142096Y-86634808D01*
X96140507Y-86635463D01*
X96137790Y-86636605D01*
X96131980Y-86638719D01*
X96125577Y-86640701D01*
X96110823Y-86646312D01*
X95734083Y-86817557D01*
X95728336Y-86819835D01*
X95722275Y-86821901D01*
X95712037Y-86824455D01*
X95709035Y-86824941D01*
X95704684Y-86825490D01*
X95158244Y-86875167D01*
X95155412Y-86875360D01*
X95151430Y-86875540D01*
X95148580Y-86875605D01*
X94654164Y-86875605D01*
X94645797Y-86875047D01*
X94634304Y-86873508D01*
X94626098Y-86871847D01*
X94486000Y-86833639D01*
X94464441Y-86829750D01*
X94387807Y-86822775D01*
X94381975Y-86821638D01*
X94381777Y-86821619D01*
X94381068Y-86821554D01*
X94377806Y-86821554D01*
X94376686Y-86821385D01*
X94374112Y-86820857D01*
X94372417Y-86820522D01*
X94369569Y-86819979D01*
X94363578Y-86818529D01*
X93814439Y-86656908D01*
X93808312Y-86654473D01*
X93805012Y-86653502D01*
X93805005Y-86653501D01*
X93804998Y-86653498D01*
X93804002Y-86653198D01*
X93801576Y-86652178D01*
X93798873Y-86651698D01*
X93798341Y-86651474D01*
X93796719Y-86650806D01*
X93794057Y-86649731D01*
X93788447Y-86647138D01*
X93684920Y-86593016D01*
X93666537Y-86585207D01*
X93480042Y-86523042D01*
X93472272Y-86519864D01*
X93461874Y-86514778D01*
X93454599Y-86510600D01*
X92860623Y-86114615D01*
X92855625Y-86110916D01*
X92851413Y-86107466D01*
X92847066Y-86103124D01*
X92847022Y-86103088D01*
X92846986Y-86103044D01*
X92842641Y-86098704D01*
X92839099Y-86094388D01*
X92835370Y-86089356D01*
X92686857Y-85866586D01*
X92678607Y-85855576D01*
X92421377Y-85549020D01*
X92418191Y-85544302D01*
X92417709Y-85543713D01*
X92415124Y-85541120D01*
X92414207Y-85539887D01*
X92412754Y-85537700D01*
X92411764Y-85536232D01*
X92410166Y-85533898D01*
X92406931Y-85528641D01*
X92253200Y-85249006D01*
X92243662Y-85234225D01*
X92141354Y-85097814D01*
X92137887Y-85092685D01*
X92134915Y-85087786D01*
X92129750Y-85077121D01*
X92128060Y-85072587D01*
X92126320Y-85067180D01*
X92040971Y-84754232D01*
X92039524Y-84749325D01*
X91945822Y-84453942D01*
X91944535Y-84447886D01*
X91944071Y-84446422D01*
X91944067Y-84446413D01*
X91944065Y-84446403D01*
X91943758Y-84445412D01*
X91943628Y-84444754D01*
X91942485Y-84442096D01*
X91942024Y-84439768D01*
X91941674Y-84438065D01*
X91941069Y-84435220D01*
X91940082Y-84429124D01*
X91875373Y-83852232D01*
X91875193Y-83848777D01*
X91875168Y-83848307D01*
X91874668Y-83839360D01*
X91874411Y-83802507D01*
X91874827Y-83794583D01*
X91875050Y-83792872D01*
X91875408Y-83789823D01*
X91875440Y-83789519D01*
X91876317Y-83785733D01*
X91876992Y-83782643D01*
X91877841Y-83778503D01*
X91877848Y-83778483D01*
X91878834Y-83775435D01*
X91878916Y-83775169D01*
X91880460Y-83771751D01*
X91881788Y-83768704D01*
X91883386Y-83764898D01*
X91883399Y-83764876D01*
X91884991Y-83762022D01*
X91885108Y-83761805D01*
X91887262Y-83758792D01*
X91889220Y-83755971D01*
X91891488Y-83752607D01*
X91893681Y-83750028D01*
X91893790Y-83749896D01*
X91896480Y-83747370D01*
X91899006Y-83744931D01*
X91901840Y-83742115D01*
X91904558Y-83739962D01*
X91904604Y-83739925D01*
X91907706Y-83737989D01*
X91910708Y-83736055D01*
X91914039Y-83733842D01*
X91917160Y-83732240D01*
X91917172Y-83732234D01*
X91920571Y-83730948D01*
X91923972Y-83729604D01*
X91927629Y-83728097D01*
X91931016Y-83727130D01*
X91931274Y-83727052D01*
X91937220Y-83726027D01*
X91940285Y-83725459D01*
X91942383Y-83725043D01*
X91946064Y-83724754D01*
X91946536Y-83724712D01*
X91953040Y-83724395D01*
X97942904Y-83724395D01*
X97947342Y-83724914D01*
X97947342Y-83724914D01*
G37*
G36*
X115947342Y-83724914D02*
X115947374Y-83724915D01*
X115951779Y-83724620D01*
X115953237Y-83724706D01*
X115955314Y-83725139D01*
X115961459Y-83725786D01*
X115961571Y-83725787D01*
X115964905Y-83726494D01*
X115965633Y-83726646D01*
X115968843Y-83727307D01*
X115969155Y-83727340D01*
X115969788Y-83727609D01*
X115975668Y-83729429D01*
X115975812Y-83729459D01*
X115978882Y-83730774D01*
X115979647Y-83731099D01*
X115982635Y-83732356D01*
X115982887Y-83732434D01*
X115983474Y-83732834D01*
X115988884Y-83735759D01*
X115989069Y-83735837D01*
X115991678Y-83737625D01*
X115992535Y-83738207D01*
X115995284Y-83740058D01*
X115995394Y-83740117D01*
X115995885Y-83740615D01*
X116000600Y-83744516D01*
X116000741Y-83744611D01*
X116003184Y-83747106D01*
X116003809Y-83747740D01*
X116005986Y-83749932D01*
X116006154Y-83750071D01*
X116006522Y-83750629D01*
X116010423Y-83755413D01*
X116010533Y-83755524D01*
X116012218Y-83758099D01*
X116012714Y-83758850D01*
X116014654Y-83761769D01*
X116014785Y-83761929D01*
X116015041Y-83762557D01*
X116017943Y-83768015D01*
X116018007Y-83768111D01*
X116019176Y-83771003D01*
X116019487Y-83771765D01*
X116020827Y-83775018D01*
X116020946Y-83775242D01*
X116021075Y-83775903D01*
X116022860Y-83781816D01*
X116022941Y-83782011D01*
X116023552Y-83785232D01*
X116023754Y-83786272D01*
X116024365Y-83789348D01*
X116024407Y-83789485D01*
X116024404Y-83790193D01*
X116025006Y-83796327D01*
X116025364Y-83798132D01*
X116025605Y-83803055D01*
X116025605Y-83845387D01*
X116025080Y-83850352D01*
X116025079Y-83850468D01*
X116025309Y-83853033D01*
X116025231Y-83854352D01*
X116024455Y-83861267D01*
X116022452Y-83871923D01*
X116018871Y-83886245D01*
X116015735Y-83904366D01*
X115968306Y-84388084D01*
X115967305Y-84394408D01*
X115966761Y-84396968D01*
X115966410Y-84398674D01*
X115965849Y-84401504D01*
X115964357Y-84407489D01*
X115797426Y-84960393D01*
X115795343Y-84965483D01*
X115795114Y-84966255D01*
X115794725Y-84968277D01*
X115794662Y-84968402D01*
X115794383Y-84969161D01*
X115793362Y-84971543D01*
X115792688Y-84973147D01*
X115791580Y-84975834D01*
X115788959Y-84981404D01*
X115516616Y-85493607D01*
X115513264Y-85498824D01*
X115512854Y-85499656D01*
X115512767Y-85499888D01*
X115511675Y-85501482D01*
X115510689Y-85502945D01*
X115509075Y-85505374D01*
X115505432Y-85510316D01*
X115451182Y-85576832D01*
X115438313Y-85595980D01*
X115418514Y-85632278D01*
X115413652Y-85639850D01*
X115406195Y-85649816D01*
X115400292Y-85656630D01*
X115327823Y-85729099D01*
X115319343Y-85738483D01*
X115138562Y-85960142D01*
X115134231Y-85964854D01*
X115132319Y-85966727D01*
X115131095Y-85967942D01*
X115129103Y-85969948D01*
X115124546Y-85974109D01*
X114678061Y-86343474D01*
X114674388Y-86345979D01*
X114673727Y-86346539D01*
X114673125Y-86347160D01*
X114672163Y-86347864D01*
X114669970Y-86349299D01*
X114668510Y-86350269D01*
X114666127Y-86351876D01*
X114660844Y-86355076D01*
X114353251Y-86521391D01*
X114341553Y-86528573D01*
X114295345Y-86560562D01*
X114290556Y-86563570D01*
X114283758Y-86567427D01*
X114278740Y-86569985D01*
X114186253Y-86612024D01*
X114178525Y-86615864D01*
X114156964Y-86627522D01*
X114150771Y-86630183D01*
X114148224Y-86631560D01*
X114148220Y-86631563D01*
X114148215Y-86631565D01*
X114147294Y-86632055D01*
X114144672Y-86633114D01*
X114142462Y-86634660D01*
X114142096Y-86634808D01*
X114140507Y-86635463D01*
X114137790Y-86636605D01*
X114131980Y-86638719D01*
X114125577Y-86640701D01*
X114110823Y-86646312D01*
X113734083Y-86817557D01*
X113728336Y-86819835D01*
X113722275Y-86821901D01*
X113712037Y-86824455D01*
X113709035Y-86824941D01*
X113704684Y-86825490D01*
X113158244Y-86875167D01*
X113155412Y-86875360D01*
X113151430Y-86875540D01*
X113148580Y-86875605D01*
X112654164Y-86875605D01*
X112645797Y-86875047D01*
X112634304Y-86873508D01*
X112626098Y-86871847D01*
X112486000Y-86833639D01*
X112464441Y-86829750D01*
X112387807Y-86822775D01*
X112381975Y-86821638D01*
X112381777Y-86821619D01*
X112381068Y-86821554D01*
X112377806Y-86821554D01*
X112376686Y-86821385D01*
X112374112Y-86820857D01*
X112372417Y-86820522D01*
X112369569Y-86819979D01*
X112363578Y-86818529D01*
X111814439Y-86656908D01*
X111808312Y-86654473D01*
X111805012Y-86653502D01*
X111805005Y-86653501D01*
X111804998Y-86653498D01*
X111804002Y-86653198D01*
X111801576Y-86652178D01*
X111798873Y-86651698D01*
X111798341Y-86651474D01*
X111796719Y-86650806D01*
X111794057Y-86649731D01*
X111788447Y-86647138D01*
X111684920Y-86593016D01*
X111666537Y-86585207D01*
X111480042Y-86523042D01*
X111472272Y-86519864D01*
X111461874Y-86514778D01*
X111454599Y-86510600D01*
X110860623Y-86114615D01*
X110855625Y-86110916D01*
X110851413Y-86107466D01*
X110847066Y-86103124D01*
X110847022Y-86103088D01*
X110846986Y-86103044D01*
X110842641Y-86098704D01*
X110839099Y-86094388D01*
X110835370Y-86089356D01*
X110686857Y-85866586D01*
X110678607Y-85855576D01*
X110421377Y-85549020D01*
X110418191Y-85544302D01*
X110417709Y-85543713D01*
X110415124Y-85541120D01*
X110414207Y-85539887D01*
X110412754Y-85537700D01*
X110411764Y-85536232D01*
X110410166Y-85533898D01*
X110406931Y-85528641D01*
X110253200Y-85249006D01*
X110243662Y-85234225D01*
X110141354Y-85097814D01*
X110137887Y-85092685D01*
X110134915Y-85087786D01*
X110129750Y-85077121D01*
X110128060Y-85072587D01*
X110126320Y-85067180D01*
X110040971Y-84754232D01*
X110039524Y-84749325D01*
X109945822Y-84453942D01*
X109944535Y-84447886D01*
X109944071Y-84446422D01*
X109944067Y-84446413D01*
X109944065Y-84446403D01*
X109943758Y-84445412D01*
X109943628Y-84444754D01*
X109942485Y-84442096D01*
X109942024Y-84439768D01*
X109941674Y-84438065D01*
X109941069Y-84435220D01*
X109940082Y-84429124D01*
X109875373Y-83852232D01*
X109875193Y-83848777D01*
X109875168Y-83848307D01*
X109874668Y-83839360D01*
X109874411Y-83802507D01*
X109874827Y-83794583D01*
X109875050Y-83792872D01*
X109875408Y-83789823D01*
X109875440Y-83789519D01*
X109876317Y-83785733D01*
X109876992Y-83782643D01*
X109877841Y-83778503D01*
X109877848Y-83778483D01*
X109878834Y-83775435D01*
X109878916Y-83775169D01*
X109880460Y-83771751D01*
X109881788Y-83768704D01*
X109883386Y-83764898D01*
X109883399Y-83764876D01*
X109884991Y-83762022D01*
X109885108Y-83761805D01*
X109887262Y-83758792D01*
X109889220Y-83755971D01*
X109891488Y-83752607D01*
X109893681Y-83750028D01*
X109893790Y-83749896D01*
X109896480Y-83747370D01*
X109899006Y-83744931D01*
X109901840Y-83742115D01*
X109904558Y-83739962D01*
X109904604Y-83739925D01*
X109907706Y-83737989D01*
X109910708Y-83736055D01*
X109914039Y-83733842D01*
X109917160Y-83732240D01*
X109917172Y-83732234D01*
X109920571Y-83730948D01*
X109923972Y-83729604D01*
X109927629Y-83728097D01*
X109931016Y-83727130D01*
X109931274Y-83727052D01*
X109937220Y-83726027D01*
X109940285Y-83725459D01*
X109942383Y-83725043D01*
X109946064Y-83724754D01*
X109946536Y-83724712D01*
X109953040Y-83724395D01*
X115942904Y-83724395D01*
X115947342Y-83724914D01*
X115947342Y-83724914D01*
G37*
G36*
X113254203Y-80124953D02*
X113265696Y-80126492D01*
X113273902Y-80128153D01*
X113414000Y-80166361D01*
X113435559Y-80170250D01*
X113512193Y-80177225D01*
X113518025Y-80178362D01*
X113518223Y-80178381D01*
X113518932Y-80178446D01*
X113522194Y-80178446D01*
X113523314Y-80178615D01*
X113525888Y-80179143D01*
X113527583Y-80179478D01*
X113530431Y-80180021D01*
X113536422Y-80181471D01*
X114085561Y-80343092D01*
X114091688Y-80345527D01*
X114094988Y-80346498D01*
X114094995Y-80346499D01*
X114095002Y-80346502D01*
X114095998Y-80346802D01*
X114098424Y-80347822D01*
X114101127Y-80348302D01*
X114101659Y-80348526D01*
X114103281Y-80349194D01*
X114105943Y-80350269D01*
X114111553Y-80352862D01*
X114215080Y-80406984D01*
X114233463Y-80414793D01*
X114419958Y-80476958D01*
X114427728Y-80480136D01*
X114438126Y-80485222D01*
X114445401Y-80489400D01*
X115039377Y-80885385D01*
X115044375Y-80889084D01*
X115048587Y-80892534D01*
X115052934Y-80896876D01*
X115052978Y-80896912D01*
X115053014Y-80896956D01*
X115057359Y-80901296D01*
X115060901Y-80905612D01*
X115064630Y-80910644D01*
X115213143Y-81133414D01*
X115221393Y-81144424D01*
X115478623Y-81450980D01*
X115481809Y-81455698D01*
X115482291Y-81456287D01*
X115484876Y-81458880D01*
X115485793Y-81460113D01*
X115487246Y-81462300D01*
X115488236Y-81463768D01*
X115489834Y-81466102D01*
X115493069Y-81471359D01*
X115646800Y-81750994D01*
X115656338Y-81765775D01*
X115758646Y-81902186D01*
X115762113Y-81907315D01*
X115765085Y-81912214D01*
X115770250Y-81922879D01*
X115771940Y-81927413D01*
X115773680Y-81932820D01*
X115859029Y-82245768D01*
X115860476Y-82250675D01*
X115954178Y-82546058D01*
X115955465Y-82552114D01*
X115955929Y-82553578D01*
X115955933Y-82553587D01*
X115955935Y-82553597D01*
X115956242Y-82554588D01*
X115956372Y-82555246D01*
X115957515Y-82557904D01*
X115957976Y-82560232D01*
X115958326Y-82561935D01*
X115958931Y-82564780D01*
X115959918Y-82570876D01*
X116024627Y-83147768D01*
X116024807Y-83151223D01*
X116024832Y-83151693D01*
X116025332Y-83160640D01*
X116025589Y-83197493D01*
X116025173Y-83205417D01*
X116024950Y-83207128D01*
X116024592Y-83210177D01*
X116024560Y-83210481D01*
X116023683Y-83214267D01*
X116023008Y-83217357D01*
X116022159Y-83221497D01*
X116022152Y-83221517D01*
X116021166Y-83224565D01*
X116021084Y-83224831D01*
X116019541Y-83228247D01*
X116018215Y-83231289D01*
X116016613Y-83235103D01*
X116016601Y-83235124D01*
X116015009Y-83237978D01*
X116014892Y-83238195D01*
X116012738Y-83241208D01*
X116010780Y-83244029D01*
X116008514Y-83247391D01*
X116008512Y-83247393D01*
X116006319Y-83249972D01*
X116006210Y-83250104D01*
X116003520Y-83252630D01*
X116000994Y-83255069D01*
X115998160Y-83257885D01*
X115995442Y-83260038D01*
X115995394Y-83260077D01*
X115992306Y-83262004D01*
X115989310Y-83263933D01*
X115985959Y-83266159D01*
X115982840Y-83267760D01*
X115982828Y-83267766D01*
X115979429Y-83269052D01*
X115976028Y-83270396D01*
X115972371Y-83271903D01*
X115968984Y-83272870D01*
X115968726Y-83272948D01*
X115962780Y-83273973D01*
X115959715Y-83274541D01*
X115957617Y-83274957D01*
X115953936Y-83275246D01*
X115953464Y-83275288D01*
X115946960Y-83275605D01*
X109957096Y-83275605D01*
X109952658Y-83275086D01*
X109952626Y-83275085D01*
X109948221Y-83275380D01*
X109946763Y-83275294D01*
X109944686Y-83274861D01*
X109938541Y-83274214D01*
X109938429Y-83274213D01*
X109935095Y-83273506D01*
X109934367Y-83273354D01*
X109931157Y-83272693D01*
X109930845Y-83272660D01*
X109930212Y-83272391D01*
X109924332Y-83270571D01*
X109924188Y-83270541D01*
X109921118Y-83269226D01*
X109920353Y-83268901D01*
X109917365Y-83267644D01*
X109917113Y-83267566D01*
X109916526Y-83267166D01*
X109911116Y-83264241D01*
X109910931Y-83264163D01*
X109908322Y-83262375D01*
X109907465Y-83261793D01*
X109904716Y-83259942D01*
X109904606Y-83259883D01*
X109904115Y-83259385D01*
X109899400Y-83255484D01*
X109899259Y-83255389D01*
X109896816Y-83252894D01*
X109896191Y-83252260D01*
X109894014Y-83250068D01*
X109893845Y-83249928D01*
X109893478Y-83249371D01*
X109889577Y-83244587D01*
X109889467Y-83244476D01*
X109887782Y-83241901D01*
X109887286Y-83241150D01*
X109885346Y-83238231D01*
X109885214Y-83238069D01*
X109884959Y-83237443D01*
X109882057Y-83231985D01*
X109881993Y-83231889D01*
X109880824Y-83228997D01*
X109880513Y-83228235D01*
X109879173Y-83224982D01*
X109879054Y-83224758D01*
X109878925Y-83224097D01*
X109877140Y-83218184D01*
X109877059Y-83217988D01*
X109876443Y-83214742D01*
X109876235Y-83213674D01*
X109875630Y-83210631D01*
X109875593Y-83210510D01*
X109875596Y-83209807D01*
X109874994Y-83203673D01*
X109874636Y-83201868D01*
X109874395Y-83196945D01*
X109874395Y-83154613D01*
X109874920Y-83149648D01*
X109874921Y-83149532D01*
X109874691Y-83146967D01*
X109874769Y-83145648D01*
X109875545Y-83138733D01*
X109877548Y-83128077D01*
X109881129Y-83113755D01*
X109884265Y-83095634D01*
X109931694Y-82611916D01*
X109932695Y-82605592D01*
X109933239Y-82603032D01*
X109933590Y-82601326D01*
X109934151Y-82598496D01*
X109935643Y-82592511D01*
X110102574Y-82039607D01*
X110104657Y-82034517D01*
X110104886Y-82033745D01*
X110105275Y-82031723D01*
X110105338Y-82031598D01*
X110105617Y-82030839D01*
X110106638Y-82028457D01*
X110107312Y-82026853D01*
X110108420Y-82024166D01*
X110111041Y-82018596D01*
X110383384Y-81506393D01*
X110386736Y-81501176D01*
X110387146Y-81500344D01*
X110387233Y-81500112D01*
X110388325Y-81498518D01*
X110389311Y-81497055D01*
X110390925Y-81494626D01*
X110394568Y-81489684D01*
X110448818Y-81423168D01*
X110461687Y-81404020D01*
X110481486Y-81367722D01*
X110486348Y-81360150D01*
X110493805Y-81350184D01*
X110499708Y-81343370D01*
X110572177Y-81270901D01*
X110580657Y-81261517D01*
X110761438Y-81039858D01*
X110765769Y-81035146D01*
X110767681Y-81033273D01*
X110768905Y-81032058D01*
X110770897Y-81030052D01*
X110775454Y-81025891D01*
X111221939Y-80656526D01*
X111225612Y-80654021D01*
X111226273Y-80653461D01*
X111226875Y-80652840D01*
X111227837Y-80652136D01*
X111230030Y-80650701D01*
X111231490Y-80649731D01*
X111233873Y-80648124D01*
X111239156Y-80644924D01*
X111546749Y-80478609D01*
X111558447Y-80471427D01*
X111604655Y-80439438D01*
X111609444Y-80436430D01*
X111616242Y-80432573D01*
X111621260Y-80430015D01*
X111713747Y-80387976D01*
X111721475Y-80384136D01*
X111743036Y-80372478D01*
X111749229Y-80369817D01*
X111751776Y-80368440D01*
X111751780Y-80368437D01*
X111751785Y-80368435D01*
X111752706Y-80367945D01*
X111755328Y-80366886D01*
X111757538Y-80365340D01*
X111757904Y-80365192D01*
X111759493Y-80364537D01*
X111762210Y-80363395D01*
X111768020Y-80361281D01*
X111774423Y-80359299D01*
X111789177Y-80353688D01*
X112165917Y-80182443D01*
X112171664Y-80180165D01*
X112177725Y-80178099D01*
X112187963Y-80175545D01*
X112190965Y-80175059D01*
X112195316Y-80174510D01*
X112741756Y-80124833D01*
X112744588Y-80124640D01*
X112748570Y-80124460D01*
X112751420Y-80124395D01*
X113245836Y-80124395D01*
X113254203Y-80124953D01*
X113254203Y-80124953D01*
G37*
G36*
X95254203Y-80124953D02*
X95265696Y-80126492D01*
X95273902Y-80128153D01*
X95414000Y-80166361D01*
X95435559Y-80170250D01*
X95512193Y-80177225D01*
X95518025Y-80178362D01*
X95518223Y-80178381D01*
X95518932Y-80178446D01*
X95522194Y-80178446D01*
X95523314Y-80178615D01*
X95525888Y-80179143D01*
X95527583Y-80179478D01*
X95530431Y-80180021D01*
X95536422Y-80181471D01*
X96085561Y-80343092D01*
X96091688Y-80345527D01*
X96094988Y-80346498D01*
X96094995Y-80346499D01*
X96095002Y-80346502D01*
X96095998Y-80346802D01*
X96098424Y-80347822D01*
X96101127Y-80348302D01*
X96101659Y-80348526D01*
X96103281Y-80349194D01*
X96105943Y-80350269D01*
X96111553Y-80352862D01*
X96215080Y-80406984D01*
X96233463Y-80414793D01*
X96419958Y-80476958D01*
X96427728Y-80480136D01*
X96438126Y-80485222D01*
X96445401Y-80489400D01*
X97039377Y-80885385D01*
X97044375Y-80889084D01*
X97048587Y-80892534D01*
X97052934Y-80896876D01*
X97052978Y-80896912D01*
X97053014Y-80896956D01*
X97057359Y-80901296D01*
X97060901Y-80905612D01*
X97064630Y-80910644D01*
X97213143Y-81133414D01*
X97221393Y-81144424D01*
X97478623Y-81450980D01*
X97481809Y-81455698D01*
X97482291Y-81456287D01*
X97484876Y-81458880D01*
X97485793Y-81460113D01*
X97487246Y-81462300D01*
X97488236Y-81463768D01*
X97489834Y-81466102D01*
X97493069Y-81471359D01*
X97646800Y-81750994D01*
X97656338Y-81765775D01*
X97758646Y-81902186D01*
X97762113Y-81907315D01*
X97765085Y-81912214D01*
X97770250Y-81922879D01*
X97771940Y-81927413D01*
X97773680Y-81932820D01*
X97859029Y-82245768D01*
X97860476Y-82250675D01*
X97954178Y-82546058D01*
X97955465Y-82552114D01*
X97955929Y-82553578D01*
X97955933Y-82553587D01*
X97955935Y-82553597D01*
X97956242Y-82554588D01*
X97956372Y-82555246D01*
X97957515Y-82557904D01*
X97957976Y-82560232D01*
X97958326Y-82561935D01*
X97958931Y-82564780D01*
X97959918Y-82570876D01*
X98024627Y-83147768D01*
X98024807Y-83151223D01*
X98024832Y-83151693D01*
X98025332Y-83160640D01*
X98025589Y-83197493D01*
X98025173Y-83205417D01*
X98024950Y-83207128D01*
X98024592Y-83210177D01*
X98024560Y-83210481D01*
X98023683Y-83214267D01*
X98023008Y-83217357D01*
X98022159Y-83221497D01*
X98022152Y-83221517D01*
X98021166Y-83224565D01*
X98021084Y-83224831D01*
X98019541Y-83228247D01*
X98018215Y-83231289D01*
X98016613Y-83235103D01*
X98016601Y-83235124D01*
X98015009Y-83237978D01*
X98014892Y-83238195D01*
X98012738Y-83241208D01*
X98010780Y-83244029D01*
X98008514Y-83247391D01*
X98008512Y-83247393D01*
X98006319Y-83249972D01*
X98006210Y-83250104D01*
X98003520Y-83252630D01*
X98000994Y-83255069D01*
X97998160Y-83257885D01*
X97995442Y-83260038D01*
X97995394Y-83260077D01*
X97992306Y-83262004D01*
X97989310Y-83263933D01*
X97985959Y-83266159D01*
X97982840Y-83267760D01*
X97982828Y-83267766D01*
X97979429Y-83269052D01*
X97976028Y-83270396D01*
X97972371Y-83271903D01*
X97968984Y-83272870D01*
X97968726Y-83272948D01*
X97962780Y-83273973D01*
X97959715Y-83274541D01*
X97957617Y-83274957D01*
X97953936Y-83275246D01*
X97953464Y-83275288D01*
X97946960Y-83275605D01*
X91957096Y-83275605D01*
X91952658Y-83275086D01*
X91952626Y-83275085D01*
X91948221Y-83275380D01*
X91946763Y-83275294D01*
X91944686Y-83274861D01*
X91938541Y-83274214D01*
X91938429Y-83274213D01*
X91935095Y-83273506D01*
X91934367Y-83273354D01*
X91931157Y-83272693D01*
X91930845Y-83272660D01*
X91930212Y-83272391D01*
X91924332Y-83270571D01*
X91924188Y-83270541D01*
X91921118Y-83269226D01*
X91920353Y-83268901D01*
X91917365Y-83267644D01*
X91917113Y-83267566D01*
X91916526Y-83267166D01*
X91911116Y-83264241D01*
X91910931Y-83264163D01*
X91908322Y-83262375D01*
X91907465Y-83261793D01*
X91904716Y-83259942D01*
X91904606Y-83259883D01*
X91904115Y-83259385D01*
X91899400Y-83255484D01*
X91899259Y-83255389D01*
X91896816Y-83252894D01*
X91896191Y-83252260D01*
X91894014Y-83250068D01*
X91893845Y-83249928D01*
X91893478Y-83249371D01*
X91889577Y-83244587D01*
X91889467Y-83244476D01*
X91887782Y-83241901D01*
X91887286Y-83241150D01*
X91885346Y-83238231D01*
X91885214Y-83238069D01*
X91884959Y-83237443D01*
X91882057Y-83231985D01*
X91881993Y-83231889D01*
X91880824Y-83228997D01*
X91880513Y-83228235D01*
X91879173Y-83224982D01*
X91879054Y-83224758D01*
X91878925Y-83224097D01*
X91877140Y-83218184D01*
X91877059Y-83217988D01*
X91876443Y-83214742D01*
X91876235Y-83213674D01*
X91875630Y-83210631D01*
X91875593Y-83210510D01*
X91875596Y-83209807D01*
X91874994Y-83203673D01*
X91874636Y-83201868D01*
X91874395Y-83196945D01*
X91874395Y-83154613D01*
X91874920Y-83149648D01*
X91874921Y-83149532D01*
X91874691Y-83146967D01*
X91874769Y-83145648D01*
X91875545Y-83138733D01*
X91877548Y-83128077D01*
X91881129Y-83113755D01*
X91884265Y-83095634D01*
X91931694Y-82611916D01*
X91932695Y-82605592D01*
X91933239Y-82603032D01*
X91933590Y-82601326D01*
X91934151Y-82598496D01*
X91935643Y-82592511D01*
X92102574Y-82039607D01*
X92104657Y-82034517D01*
X92104886Y-82033745D01*
X92105275Y-82031723D01*
X92105338Y-82031598D01*
X92105617Y-82030839D01*
X92106638Y-82028457D01*
X92107312Y-82026853D01*
X92108420Y-82024166D01*
X92111041Y-82018596D01*
X92383384Y-81506393D01*
X92386736Y-81501176D01*
X92387146Y-81500344D01*
X92387233Y-81500112D01*
X92388325Y-81498518D01*
X92389311Y-81497055D01*
X92390925Y-81494626D01*
X92394568Y-81489684D01*
X92448818Y-81423168D01*
X92461687Y-81404020D01*
X92481486Y-81367722D01*
X92486348Y-81360150D01*
X92493805Y-81350184D01*
X92499708Y-81343370D01*
X92572177Y-81270901D01*
X92580657Y-81261517D01*
X92761438Y-81039858D01*
X92765769Y-81035146D01*
X92767681Y-81033273D01*
X92768905Y-81032058D01*
X92770897Y-81030052D01*
X92775454Y-81025891D01*
X93221939Y-80656526D01*
X93225612Y-80654021D01*
X93226273Y-80653461D01*
X93226875Y-80652840D01*
X93227837Y-80652136D01*
X93230030Y-80650701D01*
X93231490Y-80649731D01*
X93233873Y-80648124D01*
X93239156Y-80644924D01*
X93546749Y-80478609D01*
X93558447Y-80471427D01*
X93604655Y-80439438D01*
X93609444Y-80436430D01*
X93616242Y-80432573D01*
X93621260Y-80430015D01*
X93713747Y-80387976D01*
X93721475Y-80384136D01*
X93743036Y-80372478D01*
X93749229Y-80369817D01*
X93751776Y-80368440D01*
X93751780Y-80368437D01*
X93751785Y-80368435D01*
X93752706Y-80367945D01*
X93755328Y-80366886D01*
X93757538Y-80365340D01*
X93757904Y-80365192D01*
X93759493Y-80364537D01*
X93762210Y-80363395D01*
X93768020Y-80361281D01*
X93774423Y-80359299D01*
X93789177Y-80353688D01*
X94165917Y-80182443D01*
X94171664Y-80180165D01*
X94177725Y-80178099D01*
X94187963Y-80175545D01*
X94190965Y-80175059D01*
X94195316Y-80174510D01*
X94741756Y-80124833D01*
X94744588Y-80124640D01*
X94748570Y-80124460D01*
X94751420Y-80124395D01*
X95245836Y-80124395D01*
X95254203Y-80124953D01*
X95254203Y-80124953D01*
G37*
G36*
X186242323Y-77754767D02*
X186369561Y-77793364D01*
X186486824Y-77856042D01*
X186589606Y-77940394D01*
X186673958Y-78043176D01*
X186736636Y-78160439D01*
X186775233Y-78287677D01*
X186788266Y-78420000D01*
X186775233Y-78552323D01*
X186736636Y-78679561D01*
X186673958Y-78796824D01*
X186589606Y-78899606D01*
X186486824Y-78983958D01*
X186369561Y-79046636D01*
X186242323Y-79085233D01*
X186143159Y-79095000D01*
X186076841Y-79095000D01*
X185977677Y-79085233D01*
X185850439Y-79046636D01*
X185733176Y-78983958D01*
X185630394Y-78899606D01*
X185546042Y-78796824D01*
X185483364Y-78679561D01*
X185444767Y-78552323D01*
X185431734Y-78420000D01*
X185444767Y-78287677D01*
X185483364Y-78160439D01*
X185546042Y-78043176D01*
X185630394Y-77940394D01*
X185733176Y-77856042D01*
X185850439Y-77793364D01*
X185977677Y-77754767D01*
X186076841Y-77745000D01*
X186143159Y-77745000D01*
X186242323Y-77754767D01*
X186242323Y-77754767D01*
G37*
G36*
X103705417Y-71374827D02*
X103707128Y-71375050D01*
X103710177Y-71375408D01*
X103710481Y-71375440D01*
X103714267Y-71376317D01*
X103717357Y-71376992D01*
X103721497Y-71377841D01*
X103721517Y-71377848D01*
X103724565Y-71378834D01*
X103724831Y-71378916D01*
X103728249Y-71380460D01*
X103731296Y-71381788D01*
X103735102Y-71383386D01*
X103735124Y-71383399D01*
X103737978Y-71384991D01*
X103738195Y-71385108D01*
X103741208Y-71387262D01*
X103744029Y-71389220D01*
X103747391Y-71391486D01*
X103747393Y-71391488D01*
X103749972Y-71393681D01*
X103750104Y-71393790D01*
X103752630Y-71396480D01*
X103755069Y-71399006D01*
X103757885Y-71401840D01*
X103760038Y-71404558D01*
X103760075Y-71404604D01*
X103762011Y-71407706D01*
X103763945Y-71410708D01*
X103766157Y-71414037D01*
X103767760Y-71417160D01*
X103767766Y-71417171D01*
X103769052Y-71420571D01*
X103770396Y-71423972D01*
X103771903Y-71427629D01*
X103772870Y-71431016D01*
X103772948Y-71431274D01*
X103773973Y-71437220D01*
X103774541Y-71440285D01*
X103774957Y-71442383D01*
X103775246Y-71446064D01*
X103775288Y-71446536D01*
X103775605Y-71453040D01*
X103775605Y-77442904D01*
X103775086Y-77447342D01*
X103775085Y-77447374D01*
X103775380Y-77451779D01*
X103775294Y-77453237D01*
X103774861Y-77455314D01*
X103774214Y-77461459D01*
X103774213Y-77461571D01*
X103773506Y-77464905D01*
X103773354Y-77465633D01*
X103772693Y-77468843D01*
X103772660Y-77469155D01*
X103772391Y-77469788D01*
X103770571Y-77475668D01*
X103770541Y-77475812D01*
X103769226Y-77478882D01*
X103768901Y-77479647D01*
X103767644Y-77482635D01*
X103767566Y-77482887D01*
X103767166Y-77483474D01*
X103764241Y-77488884D01*
X103764163Y-77489069D01*
X103762375Y-77491678D01*
X103761793Y-77492535D01*
X103759942Y-77495284D01*
X103759883Y-77495394D01*
X103759385Y-77495885D01*
X103755484Y-77500600D01*
X103755389Y-77500741D01*
X103752894Y-77503184D01*
X103752260Y-77503809D01*
X103750068Y-77505986D01*
X103749929Y-77506154D01*
X103749371Y-77506522D01*
X103744587Y-77510423D01*
X103744476Y-77510533D01*
X103741901Y-77512218D01*
X103741150Y-77512714D01*
X103738231Y-77514654D01*
X103738071Y-77514785D01*
X103737443Y-77515041D01*
X103731985Y-77517943D01*
X103731889Y-77518007D01*
X103728997Y-77519176D01*
X103728235Y-77519487D01*
X103724982Y-77520827D01*
X103724758Y-77520946D01*
X103724097Y-77521075D01*
X103718184Y-77522860D01*
X103717989Y-77522941D01*
X103714768Y-77523552D01*
X103713728Y-77523754D01*
X103710652Y-77524365D01*
X103710515Y-77524407D01*
X103709807Y-77524404D01*
X103703673Y-77525006D01*
X103701868Y-77525364D01*
X103696945Y-77525605D01*
X103654613Y-77525605D01*
X103649648Y-77525080D01*
X103649532Y-77525079D01*
X103646967Y-77525309D01*
X103645648Y-77525231D01*
X103638733Y-77524455D01*
X103628077Y-77522452D01*
X103613755Y-77518871D01*
X103595634Y-77515735D01*
X103111916Y-77468306D01*
X103105592Y-77467305D01*
X103103032Y-77466761D01*
X103101326Y-77466410D01*
X103098496Y-77465849D01*
X103092511Y-77464357D01*
X102539607Y-77297426D01*
X102534517Y-77295343D01*
X102533745Y-77295114D01*
X102531723Y-77294725D01*
X102531598Y-77294662D01*
X102530839Y-77294383D01*
X102528457Y-77293362D01*
X102526853Y-77292688D01*
X102524166Y-77291580D01*
X102518596Y-77288959D01*
X102006393Y-77016616D01*
X102001176Y-77013264D01*
X102000344Y-77012854D01*
X102000112Y-77012767D01*
X101998518Y-77011675D01*
X101997055Y-77010689D01*
X101994626Y-77009075D01*
X101989684Y-77005432D01*
X101923168Y-76951182D01*
X101904020Y-76938313D01*
X101867722Y-76918514D01*
X101860150Y-76913652D01*
X101850184Y-76906195D01*
X101843370Y-76900292D01*
X101770901Y-76827823D01*
X101761517Y-76819343D01*
X101539858Y-76638562D01*
X101535146Y-76634231D01*
X101533273Y-76632319D01*
X101532058Y-76631095D01*
X101530052Y-76629103D01*
X101525891Y-76624546D01*
X101156526Y-76178061D01*
X101154021Y-76174388D01*
X101153461Y-76173727D01*
X101152840Y-76173125D01*
X101152136Y-76172163D01*
X101150701Y-76169970D01*
X101149731Y-76168510D01*
X101148124Y-76166127D01*
X101144924Y-76160844D01*
X100978609Y-75853251D01*
X100971427Y-75841553D01*
X100939438Y-75795345D01*
X100936430Y-75790556D01*
X100932573Y-75783758D01*
X100930015Y-75778740D01*
X100887976Y-75686253D01*
X100884136Y-75678525D01*
X100872478Y-75656964D01*
X100869817Y-75650771D01*
X100868440Y-75648224D01*
X100868437Y-75648220D01*
X100868435Y-75648215D01*
X100867945Y-75647294D01*
X100866886Y-75644672D01*
X100865340Y-75642462D01*
X100865192Y-75642096D01*
X100864537Y-75640507D01*
X100863395Y-75637790D01*
X100861281Y-75631980D01*
X100859299Y-75625577D01*
X100853688Y-75610823D01*
X100682443Y-75234083D01*
X100680165Y-75228336D01*
X100678099Y-75222275D01*
X100675545Y-75212037D01*
X100675059Y-75209035D01*
X100674510Y-75204684D01*
X100624833Y-74658244D01*
X100624640Y-74655412D01*
X100624460Y-74651430D01*
X100624395Y-74648580D01*
X100624395Y-74154164D01*
X100624953Y-74145797D01*
X100626492Y-74134304D01*
X100628153Y-74126098D01*
X100666361Y-73986000D01*
X100670250Y-73964441D01*
X100677225Y-73887807D01*
X100678362Y-73881975D01*
X100678381Y-73881777D01*
X100678446Y-73881068D01*
X100678446Y-73877806D01*
X100678615Y-73876686D01*
X100679143Y-73874112D01*
X100679478Y-73872417D01*
X100680021Y-73869569D01*
X100681471Y-73863578D01*
X100843092Y-73314439D01*
X100845527Y-73308312D01*
X100846498Y-73305012D01*
X100846499Y-73305005D01*
X100846502Y-73304998D01*
X100846802Y-73304002D01*
X100847822Y-73301576D01*
X100848302Y-73298873D01*
X100848526Y-73298341D01*
X100849194Y-73296719D01*
X100850269Y-73294057D01*
X100852862Y-73288447D01*
X100906984Y-73184920D01*
X100914793Y-73166537D01*
X100976958Y-72980042D01*
X100980136Y-72972272D01*
X100985222Y-72961874D01*
X100989400Y-72954599D01*
X101385385Y-72360623D01*
X101389084Y-72355625D01*
X101392534Y-72351413D01*
X101396876Y-72347066D01*
X101396912Y-72347022D01*
X101396956Y-72346986D01*
X101401296Y-72342641D01*
X101405612Y-72339099D01*
X101410644Y-72335370D01*
X101633414Y-72186857D01*
X101644424Y-72178607D01*
X101950980Y-71921377D01*
X101955698Y-71918191D01*
X101956287Y-71917709D01*
X101958880Y-71915124D01*
X101960113Y-71914207D01*
X101962300Y-71912754D01*
X101963768Y-71911764D01*
X101966102Y-71910166D01*
X101971359Y-71906931D01*
X102250994Y-71753200D01*
X102265775Y-71743662D01*
X102402186Y-71641354D01*
X102407315Y-71637887D01*
X102412214Y-71634915D01*
X102422879Y-71629750D01*
X102427413Y-71628060D01*
X102432820Y-71626320D01*
X102745768Y-71540971D01*
X102750675Y-71539524D01*
X103046058Y-71445822D01*
X103052114Y-71444535D01*
X103053578Y-71444071D01*
X103053587Y-71444067D01*
X103053597Y-71444065D01*
X103054588Y-71443758D01*
X103055246Y-71443628D01*
X103057904Y-71442485D01*
X103060232Y-71442024D01*
X103061935Y-71441674D01*
X103064780Y-71441069D01*
X103070876Y-71440082D01*
X103647768Y-71375373D01*
X103651223Y-71375193D01*
X103651693Y-71375168D01*
X103660640Y-71374668D01*
X103697493Y-71374411D01*
X103705417Y-71374827D01*
X103705417Y-71374827D01*
G37*
G36*
X104350352Y-71374920D02*
X104350468Y-71374921D01*
X104353033Y-71374691D01*
X104354352Y-71374769D01*
X104361267Y-71375545D01*
X104371923Y-71377548D01*
X104386245Y-71381129D01*
X104404366Y-71384265D01*
X104888084Y-71431694D01*
X104894408Y-71432695D01*
X104896968Y-71433239D01*
X104898674Y-71433590D01*
X104901504Y-71434151D01*
X104907489Y-71435643D01*
X105460393Y-71602574D01*
X105465483Y-71604657D01*
X105466255Y-71604886D01*
X105468277Y-71605275D01*
X105468402Y-71605338D01*
X105469161Y-71605617D01*
X105471543Y-71606638D01*
X105473147Y-71607312D01*
X105475834Y-71608420D01*
X105481404Y-71611041D01*
X105993607Y-71883384D01*
X105998824Y-71886736D01*
X105999656Y-71887146D01*
X105999888Y-71887233D01*
X106001482Y-71888325D01*
X106002945Y-71889311D01*
X106005374Y-71890925D01*
X106010316Y-71894568D01*
X106076832Y-71948818D01*
X106095980Y-71961687D01*
X106132278Y-71981486D01*
X106139850Y-71986348D01*
X106149816Y-71993805D01*
X106156630Y-71999708D01*
X106229099Y-72072177D01*
X106238483Y-72080657D01*
X106460142Y-72261438D01*
X106464854Y-72265769D01*
X106466727Y-72267681D01*
X106467942Y-72268905D01*
X106469948Y-72270897D01*
X106474109Y-72275454D01*
X106843474Y-72721939D01*
X106845979Y-72725612D01*
X106846539Y-72726273D01*
X106847160Y-72726875D01*
X106847864Y-72727837D01*
X106849299Y-72730030D01*
X106850269Y-72731490D01*
X106851876Y-72733873D01*
X106855076Y-72739156D01*
X107021391Y-73046749D01*
X107028573Y-73058447D01*
X107060562Y-73104655D01*
X107063570Y-73109444D01*
X107067427Y-73116242D01*
X107069985Y-73121260D01*
X107112024Y-73213747D01*
X107115864Y-73221475D01*
X107127522Y-73243036D01*
X107130183Y-73249229D01*
X107131560Y-73251776D01*
X107131563Y-73251780D01*
X107131565Y-73251785D01*
X107132055Y-73252706D01*
X107133114Y-73255328D01*
X107134660Y-73257538D01*
X107134808Y-73257904D01*
X107135463Y-73259493D01*
X107136605Y-73262210D01*
X107138719Y-73268020D01*
X107140701Y-73274423D01*
X107146312Y-73289177D01*
X107317557Y-73665917D01*
X107319835Y-73671664D01*
X107321901Y-73677725D01*
X107324455Y-73687963D01*
X107324941Y-73690965D01*
X107325490Y-73695316D01*
X107375167Y-74241756D01*
X107375360Y-74244588D01*
X107375540Y-74248570D01*
X107375605Y-74251420D01*
X107375605Y-74745836D01*
X107375047Y-74754203D01*
X107373508Y-74765696D01*
X107371847Y-74773902D01*
X107333639Y-74914000D01*
X107329750Y-74935559D01*
X107322775Y-75012193D01*
X107321638Y-75018025D01*
X107321619Y-75018223D01*
X107321554Y-75018932D01*
X107321554Y-75022194D01*
X107321385Y-75023314D01*
X107320857Y-75025888D01*
X107320522Y-75027583D01*
X107319979Y-75030431D01*
X107318529Y-75036422D01*
X107156908Y-75585561D01*
X107154473Y-75591688D01*
X107153502Y-75594988D01*
X107153501Y-75594995D01*
X107153498Y-75595002D01*
X107153198Y-75595998D01*
X107152178Y-75598424D01*
X107151698Y-75601127D01*
X107151474Y-75601659D01*
X107150806Y-75603281D01*
X107149731Y-75605943D01*
X107147138Y-75611553D01*
X107093016Y-75715080D01*
X107085207Y-75733463D01*
X107023042Y-75919958D01*
X107019864Y-75927728D01*
X107014778Y-75938126D01*
X107010600Y-75945401D01*
X106614615Y-76539377D01*
X106610916Y-76544375D01*
X106607466Y-76548587D01*
X106603124Y-76552934D01*
X106603088Y-76552978D01*
X106603044Y-76553014D01*
X106598704Y-76557359D01*
X106594388Y-76560901D01*
X106589356Y-76564630D01*
X106366586Y-76713143D01*
X106355576Y-76721393D01*
X106049020Y-76978623D01*
X106044302Y-76981809D01*
X106043713Y-76982291D01*
X106041120Y-76984876D01*
X106039887Y-76985793D01*
X106037700Y-76987246D01*
X106036232Y-76988236D01*
X106033898Y-76989834D01*
X106028641Y-76993069D01*
X105749006Y-77146800D01*
X105734225Y-77156338D01*
X105597814Y-77258646D01*
X105592685Y-77262113D01*
X105587786Y-77265085D01*
X105577121Y-77270250D01*
X105572587Y-77271940D01*
X105567180Y-77273680D01*
X105254232Y-77359029D01*
X105249325Y-77360476D01*
X104953942Y-77454178D01*
X104947886Y-77455465D01*
X104946422Y-77455929D01*
X104946413Y-77455933D01*
X104946403Y-77455935D01*
X104945412Y-77456242D01*
X104944754Y-77456372D01*
X104942096Y-77457515D01*
X104939768Y-77457976D01*
X104938065Y-77458326D01*
X104935220Y-77458931D01*
X104929124Y-77459918D01*
X104352232Y-77524627D01*
X104348777Y-77524807D01*
X104348307Y-77524832D01*
X104339360Y-77525332D01*
X104302507Y-77525589D01*
X104294583Y-77525173D01*
X104292872Y-77524950D01*
X104289823Y-77524592D01*
X104289519Y-77524560D01*
X104285733Y-77523683D01*
X104282643Y-77523008D01*
X104278503Y-77522159D01*
X104278483Y-77522152D01*
X104275435Y-77521166D01*
X104275169Y-77521084D01*
X104271751Y-77519540D01*
X104268704Y-77518212D01*
X104264898Y-77516614D01*
X104264876Y-77516601D01*
X104262022Y-77515009D01*
X104261805Y-77514892D01*
X104258792Y-77512738D01*
X104255971Y-77510780D01*
X104252609Y-77508514D01*
X104252607Y-77508512D01*
X104250028Y-77506319D01*
X104249896Y-77506210D01*
X104247370Y-77503520D01*
X104244931Y-77500994D01*
X104242115Y-77498160D01*
X104239962Y-77495442D01*
X104239925Y-77495396D01*
X104237989Y-77492294D01*
X104236055Y-77489292D01*
X104233842Y-77485961D01*
X104232240Y-77482840D01*
X104232234Y-77482828D01*
X104230948Y-77479429D01*
X104229604Y-77476028D01*
X104228097Y-77472371D01*
X104227130Y-77468984D01*
X104227052Y-77468726D01*
X104226027Y-77462780D01*
X104225459Y-77459715D01*
X104225043Y-77457617D01*
X104224754Y-77453936D01*
X104224712Y-77453464D01*
X104224395Y-77446960D01*
X104224395Y-71457096D01*
X104224914Y-71452658D01*
X104224915Y-71452626D01*
X104224620Y-71448221D01*
X104224706Y-71446763D01*
X104225139Y-71444686D01*
X104225786Y-71438541D01*
X104225787Y-71438429D01*
X104226494Y-71435095D01*
X104226646Y-71434367D01*
X104227307Y-71431157D01*
X104227340Y-71430845D01*
X104227609Y-71430212D01*
X104229429Y-71424332D01*
X104229459Y-71424188D01*
X104230774Y-71421118D01*
X104231099Y-71420353D01*
X104232356Y-71417365D01*
X104232434Y-71417113D01*
X104232834Y-71416526D01*
X104235759Y-71411116D01*
X104235837Y-71410931D01*
X104237625Y-71408322D01*
X104238207Y-71407465D01*
X104240058Y-71404716D01*
X104240117Y-71404606D01*
X104240615Y-71404115D01*
X104244516Y-71399400D01*
X104244610Y-71399261D01*
X104247123Y-71396800D01*
X104247752Y-71396180D01*
X104249931Y-71394016D01*
X104250072Y-71393845D01*
X104250629Y-71393478D01*
X104255413Y-71389577D01*
X104255524Y-71389467D01*
X104258099Y-71387782D01*
X104258850Y-71387286D01*
X104261769Y-71385346D01*
X104261929Y-71385215D01*
X104262557Y-71384959D01*
X104268015Y-71382057D01*
X104268111Y-71381993D01*
X104271003Y-71380824D01*
X104271765Y-71380513D01*
X104275018Y-71379173D01*
X104275242Y-71379054D01*
X104275903Y-71378925D01*
X104281816Y-71377140D01*
X104282011Y-71377059D01*
X104285232Y-71376448D01*
X104286272Y-71376246D01*
X104289348Y-71375635D01*
X104289485Y-71375593D01*
X104290193Y-71375596D01*
X104296327Y-71374994D01*
X104298132Y-71374636D01*
X104303055Y-71374395D01*
X104345387Y-71374395D01*
X104350352Y-71374920D01*
X104350352Y-71374920D01*
G37*
G36*
X186242323Y-75754767D02*
X186369561Y-75793364D01*
X186486824Y-75856042D01*
X186589606Y-75940394D01*
X186673958Y-76043176D01*
X186736636Y-76160439D01*
X186775233Y-76287677D01*
X186788266Y-76420000D01*
X186775233Y-76552323D01*
X186736636Y-76679561D01*
X186673958Y-76796824D01*
X186589606Y-76899606D01*
X186486824Y-76983958D01*
X186369561Y-77046636D01*
X186242323Y-77085233D01*
X186143159Y-77095000D01*
X186076841Y-77095000D01*
X185977677Y-77085233D01*
X185850439Y-77046636D01*
X185733176Y-76983958D01*
X185630394Y-76899606D01*
X185546042Y-76796824D01*
X185483364Y-76679561D01*
X185444767Y-76552323D01*
X185431734Y-76420000D01*
X185444767Y-76287677D01*
X185483364Y-76160439D01*
X185546042Y-76043176D01*
X185630394Y-75940394D01*
X185733176Y-75856042D01*
X185850439Y-75793364D01*
X185977677Y-75754767D01*
X186076841Y-75745000D01*
X186143159Y-75745000D01*
X186242323Y-75754767D01*
X186242323Y-75754767D01*
G37*
G36*
X186242323Y-73754767D02*
X186369561Y-73793364D01*
X186486824Y-73856042D01*
X186589606Y-73940394D01*
X186673958Y-74043176D01*
X186736636Y-74160439D01*
X186775233Y-74287677D01*
X186788266Y-74420000D01*
X186775233Y-74552323D01*
X186736636Y-74679561D01*
X186673958Y-74796824D01*
X186589606Y-74899606D01*
X186486824Y-74983958D01*
X186369561Y-75046636D01*
X186242323Y-75085233D01*
X186143159Y-75095000D01*
X186076841Y-75095000D01*
X185977677Y-75085233D01*
X185850439Y-75046636D01*
X185733176Y-74983958D01*
X185630394Y-74899606D01*
X185546042Y-74796824D01*
X185483364Y-74679561D01*
X185444767Y-74552323D01*
X185431734Y-74420000D01*
X185444767Y-74287677D01*
X185483364Y-74160439D01*
X185546042Y-74043176D01*
X185630394Y-73940394D01*
X185733176Y-73856042D01*
X185850439Y-73793364D01*
X185977677Y-73754767D01*
X186076841Y-73745000D01*
X186143159Y-73745000D01*
X186242323Y-73754767D01*
X186242323Y-73754767D01*
G37*
G36*
X168870589Y-72347022D02*
X168916827Y-72351576D01*
X168992227Y-72374448D01*
X169067629Y-72397321D01*
X169206608Y-72471608D01*
X169328422Y-72571578D01*
X169428392Y-72693392D01*
X169502679Y-72832371D01*
X169502679Y-72832372D01*
X169548424Y-72983173D01*
X169563870Y-73140000D01*
X169548424Y-73296827D01*
X169546346Y-73303676D01*
X169502679Y-73447629D01*
X169428392Y-73586608D01*
X169328422Y-73708422D01*
X169206608Y-73808392D01*
X169067629Y-73882679D01*
X168992227Y-73905552D01*
X168916827Y-73928424D01*
X168877649Y-73932283D01*
X168799295Y-73940000D01*
X168720705Y-73940000D01*
X168642351Y-73932283D01*
X168603173Y-73928424D01*
X168527773Y-73905552D01*
X168452371Y-73882679D01*
X168313392Y-73808392D01*
X168191578Y-73708422D01*
X168091608Y-73586608D01*
X168017321Y-73447629D01*
X167973654Y-73303676D01*
X167971576Y-73296827D01*
X167956130Y-73140000D01*
X167971576Y-72983173D01*
X168017321Y-72832372D01*
X168017321Y-72832371D01*
X168091608Y-72693392D01*
X168191578Y-72571578D01*
X168313392Y-72471608D01*
X168452371Y-72397321D01*
X168527773Y-72374448D01*
X168603173Y-72351576D01*
X168649411Y-72347022D01*
X168720705Y-72340000D01*
X168799295Y-72340000D01*
X168870589Y-72347022D01*
X168870589Y-72347022D01*
G37*
G36*
X172410589Y-72347022D02*
X172456827Y-72351576D01*
X172532227Y-72374448D01*
X172607629Y-72397321D01*
X172746608Y-72471608D01*
X172868422Y-72571578D01*
X172968392Y-72693392D01*
X173042679Y-72832371D01*
X173042679Y-72832372D01*
X173088424Y-72983173D01*
X173103870Y-73140000D01*
X173088424Y-73296827D01*
X173086346Y-73303676D01*
X173042679Y-73447629D01*
X172968392Y-73586608D01*
X172868422Y-73708422D01*
X172746608Y-73808392D01*
X172607629Y-73882679D01*
X172532227Y-73905552D01*
X172456827Y-73928424D01*
X172417649Y-73932283D01*
X172339295Y-73940000D01*
X172260705Y-73940000D01*
X172182351Y-73932283D01*
X172143173Y-73928424D01*
X172067773Y-73905552D01*
X171992371Y-73882679D01*
X171853392Y-73808392D01*
X171731578Y-73708422D01*
X171631608Y-73586608D01*
X171557321Y-73447629D01*
X171513654Y-73303676D01*
X171511576Y-73296827D01*
X171496130Y-73140000D01*
X171511576Y-72983173D01*
X171557321Y-72832372D01*
X171557321Y-72832371D01*
X171631608Y-72693392D01*
X171731578Y-72571578D01*
X171853392Y-72471608D01*
X171992371Y-72397321D01*
X172067773Y-72374448D01*
X172143173Y-72351576D01*
X172189411Y-72347022D01*
X172260705Y-72340000D01*
X172339295Y-72340000D01*
X172410589Y-72347022D01*
X172410589Y-72347022D01*
G37*
G36*
X161870589Y-72347022D02*
X161916827Y-72351576D01*
X161992227Y-72374448D01*
X162067629Y-72397321D01*
X162206608Y-72471608D01*
X162328422Y-72571578D01*
X162428392Y-72693392D01*
X162502679Y-72832371D01*
X162502679Y-72832372D01*
X162548424Y-72983173D01*
X162563870Y-73140000D01*
X162548424Y-73296827D01*
X162546346Y-73303676D01*
X162502679Y-73447629D01*
X162428392Y-73586608D01*
X162328422Y-73708422D01*
X162206608Y-73808392D01*
X162067629Y-73882679D01*
X161992227Y-73905552D01*
X161916827Y-73928424D01*
X161877649Y-73932283D01*
X161799295Y-73940000D01*
X161720705Y-73940000D01*
X161642351Y-73932283D01*
X161603173Y-73928424D01*
X161527773Y-73905552D01*
X161452371Y-73882679D01*
X161313392Y-73808392D01*
X161191578Y-73708422D01*
X161091608Y-73586608D01*
X161017321Y-73447629D01*
X160973654Y-73303676D01*
X160971576Y-73296827D01*
X160956130Y-73140000D01*
X160971576Y-72983173D01*
X161017321Y-72832372D01*
X161017321Y-72832371D01*
X161091608Y-72693392D01*
X161191578Y-72571578D01*
X161313392Y-72471608D01*
X161452371Y-72397321D01*
X161527773Y-72374448D01*
X161603173Y-72351576D01*
X161649411Y-72347022D01*
X161720705Y-72340000D01*
X161799295Y-72340000D01*
X161870589Y-72347022D01*
X161870589Y-72347022D01*
G37*
G36*
X158320589Y-72347022D02*
X158366827Y-72351576D01*
X158442227Y-72374448D01*
X158517629Y-72397321D01*
X158656608Y-72471608D01*
X158778422Y-72571578D01*
X158878392Y-72693392D01*
X158952679Y-72832371D01*
X158952679Y-72832372D01*
X158998424Y-72983173D01*
X159013870Y-73140000D01*
X158998424Y-73296827D01*
X158996346Y-73303676D01*
X158952679Y-73447629D01*
X158878392Y-73586608D01*
X158778422Y-73708422D01*
X158656608Y-73808392D01*
X158517629Y-73882679D01*
X158442227Y-73905552D01*
X158366827Y-73928424D01*
X158327649Y-73932283D01*
X158249295Y-73940000D01*
X158170705Y-73940000D01*
X158092351Y-73932283D01*
X158053173Y-73928424D01*
X157977773Y-73905552D01*
X157902371Y-73882679D01*
X157763392Y-73808392D01*
X157641578Y-73708422D01*
X157541608Y-73586608D01*
X157467321Y-73447629D01*
X157423654Y-73303676D01*
X157421576Y-73296827D01*
X157406130Y-73140000D01*
X157421576Y-72983173D01*
X157467321Y-72832372D01*
X157467321Y-72832371D01*
X157541608Y-72693392D01*
X157641578Y-72571578D01*
X157763392Y-72471608D01*
X157902371Y-72397321D01*
X157977773Y-72374448D01*
X158053173Y-72351576D01*
X158099411Y-72347022D01*
X158170705Y-72340000D01*
X158249295Y-72340000D01*
X158320589Y-72347022D01*
X158320589Y-72347022D01*
G37*
G36*
X154710589Y-72347022D02*
X154756827Y-72351576D01*
X154832227Y-72374448D01*
X154907629Y-72397321D01*
X155046608Y-72471608D01*
X155168422Y-72571578D01*
X155268392Y-72693392D01*
X155342679Y-72832371D01*
X155342679Y-72832372D01*
X155388424Y-72983173D01*
X155403870Y-73140000D01*
X155388424Y-73296827D01*
X155386346Y-73303676D01*
X155342679Y-73447629D01*
X155268392Y-73586608D01*
X155168422Y-73708422D01*
X155046608Y-73808392D01*
X154907629Y-73882679D01*
X154832227Y-73905552D01*
X154756827Y-73928424D01*
X154717649Y-73932283D01*
X154639295Y-73940000D01*
X154560705Y-73940000D01*
X154482351Y-73932283D01*
X154443173Y-73928424D01*
X154367773Y-73905552D01*
X154292371Y-73882679D01*
X154153392Y-73808392D01*
X154031578Y-73708422D01*
X153931608Y-73586608D01*
X153857321Y-73447629D01*
X153813654Y-73303676D01*
X153811576Y-73296827D01*
X153796130Y-73140000D01*
X153811576Y-72983173D01*
X153857321Y-72832372D01*
X153857321Y-72832371D01*
X153931608Y-72693392D01*
X154031578Y-72571578D01*
X154153392Y-72471608D01*
X154292371Y-72397321D01*
X154367773Y-72374448D01*
X154443173Y-72351576D01*
X154489411Y-72347022D01*
X154560705Y-72340000D01*
X154639295Y-72340000D01*
X154710589Y-72347022D01*
X154710589Y-72347022D01*
G37*
G36*
X151110589Y-72347022D02*
X151156827Y-72351576D01*
X151232227Y-72374448D01*
X151307629Y-72397321D01*
X151446608Y-72471608D01*
X151568422Y-72571578D01*
X151668392Y-72693392D01*
X151742679Y-72832371D01*
X151742679Y-72832372D01*
X151788424Y-72983173D01*
X151803870Y-73140000D01*
X151788424Y-73296827D01*
X151786346Y-73303676D01*
X151742679Y-73447629D01*
X151668392Y-73586608D01*
X151568422Y-73708422D01*
X151446608Y-73808392D01*
X151307629Y-73882679D01*
X151232227Y-73905552D01*
X151156827Y-73928424D01*
X151117649Y-73932283D01*
X151039295Y-73940000D01*
X150960705Y-73940000D01*
X150882351Y-73932283D01*
X150843173Y-73928424D01*
X150767773Y-73905552D01*
X150692371Y-73882679D01*
X150553392Y-73808392D01*
X150431578Y-73708422D01*
X150331608Y-73586608D01*
X150257321Y-73447629D01*
X150213654Y-73303676D01*
X150211576Y-73296827D01*
X150196130Y-73140000D01*
X150211576Y-72983173D01*
X150257321Y-72832372D01*
X150257321Y-72832371D01*
X150331608Y-72693392D01*
X150431578Y-72571578D01*
X150553392Y-72471608D01*
X150692371Y-72397321D01*
X150767773Y-72374448D01*
X150843173Y-72351576D01*
X150889411Y-72347022D01*
X150960705Y-72340000D01*
X151039295Y-72340000D01*
X151110589Y-72347022D01*
X151110589Y-72347022D01*
G37*
G36*
X165370589Y-72347022D02*
X165416827Y-72351576D01*
X165492227Y-72374448D01*
X165567629Y-72397321D01*
X165706608Y-72471608D01*
X165828422Y-72571578D01*
X165928392Y-72693392D01*
X166002679Y-72832371D01*
X166002679Y-72832372D01*
X166048424Y-72983173D01*
X166063870Y-73140000D01*
X166048424Y-73296827D01*
X166046346Y-73303676D01*
X166002679Y-73447629D01*
X165928392Y-73586608D01*
X165828422Y-73708422D01*
X165706608Y-73808392D01*
X165567629Y-73882679D01*
X165492227Y-73905552D01*
X165416827Y-73928424D01*
X165377649Y-73932283D01*
X165299295Y-73940000D01*
X165220705Y-73940000D01*
X165142351Y-73932283D01*
X165103173Y-73928424D01*
X165027773Y-73905552D01*
X164952371Y-73882679D01*
X164813392Y-73808392D01*
X164691578Y-73708422D01*
X164591608Y-73586608D01*
X164517321Y-73447629D01*
X164473654Y-73303676D01*
X164471576Y-73296827D01*
X164456130Y-73140000D01*
X164471576Y-72983173D01*
X164517321Y-72832372D01*
X164517321Y-72832371D01*
X164591608Y-72693392D01*
X164691578Y-72571578D01*
X164813392Y-72471608D01*
X164952371Y-72397321D01*
X165027773Y-72374448D01*
X165103173Y-72351576D01*
X165149411Y-72347022D01*
X165220705Y-72340000D01*
X165299295Y-72340000D01*
X165370589Y-72347022D01*
X165370589Y-72347022D01*
G37*
G36*
X137620589Y-72347022D02*
X137666827Y-72351576D01*
X137742227Y-72374448D01*
X137817629Y-72397321D01*
X137956608Y-72471608D01*
X138078422Y-72571578D01*
X138178392Y-72693392D01*
X138252679Y-72832371D01*
X138252679Y-72832372D01*
X138298424Y-72983173D01*
X138313870Y-73140000D01*
X138298424Y-73296827D01*
X138296346Y-73303676D01*
X138252679Y-73447629D01*
X138178392Y-73586608D01*
X138078422Y-73708422D01*
X137956608Y-73808392D01*
X137817629Y-73882679D01*
X137742227Y-73905552D01*
X137666827Y-73928424D01*
X137627649Y-73932283D01*
X137549295Y-73940000D01*
X137470705Y-73940000D01*
X137392351Y-73932283D01*
X137353173Y-73928424D01*
X137277773Y-73905552D01*
X137202371Y-73882679D01*
X137063392Y-73808392D01*
X136941578Y-73708422D01*
X136841608Y-73586608D01*
X136767321Y-73447629D01*
X136723654Y-73303676D01*
X136721576Y-73296827D01*
X136706130Y-73140000D01*
X136721576Y-72983173D01*
X136767321Y-72832372D01*
X136767321Y-72832371D01*
X136841608Y-72693392D01*
X136941578Y-72571578D01*
X137063392Y-72471608D01*
X137202371Y-72397321D01*
X137277773Y-72374448D01*
X137353173Y-72351576D01*
X137399411Y-72347022D01*
X137470705Y-72340000D01*
X137549295Y-72340000D01*
X137620589Y-72347022D01*
X137620589Y-72347022D01*
G37*
G36*
X133870589Y-72347022D02*
X133916827Y-72351576D01*
X133992227Y-72374448D01*
X134067629Y-72397321D01*
X134206608Y-72471608D01*
X134328422Y-72571578D01*
X134428392Y-72693392D01*
X134502679Y-72832371D01*
X134502679Y-72832372D01*
X134548424Y-72983173D01*
X134563870Y-73140000D01*
X134548424Y-73296827D01*
X134546346Y-73303676D01*
X134502679Y-73447629D01*
X134428392Y-73586608D01*
X134328422Y-73708422D01*
X134206608Y-73808392D01*
X134067629Y-73882679D01*
X133992227Y-73905552D01*
X133916827Y-73928424D01*
X133877649Y-73932283D01*
X133799295Y-73940000D01*
X133720705Y-73940000D01*
X133642351Y-73932283D01*
X133603173Y-73928424D01*
X133527773Y-73905552D01*
X133452371Y-73882679D01*
X133313392Y-73808392D01*
X133191578Y-73708422D01*
X133091608Y-73586608D01*
X133017321Y-73447629D01*
X132973654Y-73303676D01*
X132971576Y-73296827D01*
X132956130Y-73140000D01*
X132971576Y-72983173D01*
X133017321Y-72832372D01*
X133017321Y-72832371D01*
X133091608Y-72693392D01*
X133191578Y-72571578D01*
X133313392Y-72471608D01*
X133452371Y-72397321D01*
X133527773Y-72374448D01*
X133603173Y-72351576D01*
X133649411Y-72347022D01*
X133720705Y-72340000D01*
X133799295Y-72340000D01*
X133870589Y-72347022D01*
X133870589Y-72347022D01*
G37*
G36*
X130120589Y-72347022D02*
X130166827Y-72351576D01*
X130242227Y-72374448D01*
X130317629Y-72397321D01*
X130456608Y-72471608D01*
X130578422Y-72571578D01*
X130678392Y-72693392D01*
X130752679Y-72832371D01*
X130752679Y-72832372D01*
X130798424Y-72983173D01*
X130813870Y-73140000D01*
X130798424Y-73296827D01*
X130796346Y-73303676D01*
X130752679Y-73447629D01*
X130678392Y-73586608D01*
X130578422Y-73708422D01*
X130456608Y-73808392D01*
X130317629Y-73882679D01*
X130242227Y-73905552D01*
X130166827Y-73928424D01*
X130127649Y-73932283D01*
X130049295Y-73940000D01*
X129970705Y-73940000D01*
X129892351Y-73932283D01*
X129853173Y-73928424D01*
X129777773Y-73905552D01*
X129702371Y-73882679D01*
X129563392Y-73808392D01*
X129441578Y-73708422D01*
X129341608Y-73586608D01*
X129267321Y-73447629D01*
X129223654Y-73303676D01*
X129221576Y-73296827D01*
X129206130Y-73140000D01*
X129221576Y-72983173D01*
X129267321Y-72832372D01*
X129267321Y-72832371D01*
X129341608Y-72693392D01*
X129441578Y-72571578D01*
X129563392Y-72471608D01*
X129702371Y-72397321D01*
X129777773Y-72374448D01*
X129853173Y-72351576D01*
X129899411Y-72347022D01*
X129970705Y-72340000D01*
X130049295Y-72340000D01*
X130120589Y-72347022D01*
X130120589Y-72347022D01*
G37*
G36*
X126320589Y-72347022D02*
X126366827Y-72351576D01*
X126442227Y-72374448D01*
X126517629Y-72397321D01*
X126656608Y-72471608D01*
X126778422Y-72571578D01*
X126878392Y-72693392D01*
X126952679Y-72832371D01*
X126952679Y-72832372D01*
X126998424Y-72983173D01*
X127013870Y-73140000D01*
X126998424Y-73296827D01*
X126996346Y-73303676D01*
X126952679Y-73447629D01*
X126878392Y-73586608D01*
X126778422Y-73708422D01*
X126656608Y-73808392D01*
X126517629Y-73882679D01*
X126442227Y-73905552D01*
X126366827Y-73928424D01*
X126327649Y-73932283D01*
X126249295Y-73940000D01*
X126170705Y-73940000D01*
X126092351Y-73932283D01*
X126053173Y-73928424D01*
X125977773Y-73905552D01*
X125902371Y-73882679D01*
X125763392Y-73808392D01*
X125641578Y-73708422D01*
X125541608Y-73586608D01*
X125467321Y-73447629D01*
X125423654Y-73303676D01*
X125421576Y-73296827D01*
X125406130Y-73140000D01*
X125421576Y-72983173D01*
X125467321Y-72832372D01*
X125467321Y-72832371D01*
X125541608Y-72693392D01*
X125641578Y-72571578D01*
X125763392Y-72471608D01*
X125902371Y-72397321D01*
X125977773Y-72374448D01*
X126053173Y-72351576D01*
X126099411Y-72347022D01*
X126170705Y-72340000D01*
X126249295Y-72340000D01*
X126320589Y-72347022D01*
X126320589Y-72347022D01*
G37*
G36*
X186242323Y-71754767D02*
X186369561Y-71793364D01*
X186486824Y-71856042D01*
X186589606Y-71940394D01*
X186673958Y-72043176D01*
X186736636Y-72160439D01*
X186775233Y-72287677D01*
X186788266Y-72420000D01*
X186775233Y-72552323D01*
X186736636Y-72679561D01*
X186673958Y-72796824D01*
X186589606Y-72899606D01*
X186486824Y-72983958D01*
X186369561Y-73046636D01*
X186242323Y-73085233D01*
X186143159Y-73095000D01*
X186076841Y-73095000D01*
X185977677Y-73085233D01*
X185850439Y-73046636D01*
X185733176Y-72983958D01*
X185630394Y-72899606D01*
X185546042Y-72796824D01*
X185483364Y-72679561D01*
X185444767Y-72552323D01*
X185431734Y-72420000D01*
X185444767Y-72287677D01*
X185483364Y-72160439D01*
X185546042Y-72043176D01*
X185630394Y-71940394D01*
X185733176Y-71856042D01*
X185850439Y-71793364D01*
X185977677Y-71754767D01*
X186076841Y-71745000D01*
X186143159Y-71745000D01*
X186242323Y-71754767D01*
X186242323Y-71754767D01*
G37*
G36*
X186242323Y-69754767D02*
X186369561Y-69793364D01*
X186486824Y-69856042D01*
X186589606Y-69940394D01*
X186673958Y-70043176D01*
X186736636Y-70160439D01*
X186775233Y-70287677D01*
X186788266Y-70420000D01*
X186775233Y-70552323D01*
X186736636Y-70679561D01*
X186673958Y-70796824D01*
X186589606Y-70899606D01*
X186486824Y-70983958D01*
X186369561Y-71046636D01*
X186242323Y-71085233D01*
X186143159Y-71095000D01*
X186076841Y-71095000D01*
X185977677Y-71085233D01*
X185850439Y-71046636D01*
X185733176Y-70983958D01*
X185630394Y-70899606D01*
X185546042Y-70796824D01*
X185483364Y-70679561D01*
X185444767Y-70552323D01*
X185431734Y-70420000D01*
X185444767Y-70287677D01*
X185483364Y-70160439D01*
X185546042Y-70043176D01*
X185630394Y-69940394D01*
X185733176Y-69856042D01*
X185850439Y-69793364D01*
X185977677Y-69754767D01*
X186076841Y-69745000D01*
X186143159Y-69745000D01*
X186242323Y-69754767D01*
X186242323Y-69754767D01*
G37*
G36*
X186242323Y-67754767D02*
X186369561Y-67793364D01*
X186486824Y-67856042D01*
X186589606Y-67940394D01*
X186673958Y-68043176D01*
X186736636Y-68160439D01*
X186775233Y-68287677D01*
X186788266Y-68420000D01*
X186775233Y-68552323D01*
X186736636Y-68679561D01*
X186673958Y-68796824D01*
X186589606Y-68899606D01*
X186486824Y-68983958D01*
X186369561Y-69046636D01*
X186242323Y-69085233D01*
X186143159Y-69095000D01*
X186076841Y-69095000D01*
X185977677Y-69085233D01*
X185850439Y-69046636D01*
X185733176Y-68983958D01*
X185630394Y-68899606D01*
X185546042Y-68796824D01*
X185483364Y-68679561D01*
X185444767Y-68552323D01*
X185431734Y-68420000D01*
X185444767Y-68287677D01*
X185483364Y-68160439D01*
X185546042Y-68043176D01*
X185630394Y-67940394D01*
X185733176Y-67856042D01*
X185850439Y-67793364D01*
X185977677Y-67754767D01*
X186076841Y-67745000D01*
X186143159Y-67745000D01*
X186242323Y-67754767D01*
X186242323Y-67754767D01*
G37*
G36*
X186242323Y-65754767D02*
X186369561Y-65793364D01*
X186486824Y-65856042D01*
X186589606Y-65940394D01*
X186673958Y-66043176D01*
X186736636Y-66160439D01*
X186775233Y-66287677D01*
X186788266Y-66420000D01*
X186775233Y-66552323D01*
X186736636Y-66679561D01*
X186673958Y-66796824D01*
X186589606Y-66899606D01*
X186486824Y-66983958D01*
X186369561Y-67046636D01*
X186242323Y-67085233D01*
X186143159Y-67095000D01*
X186076841Y-67095000D01*
X185977677Y-67085233D01*
X185850439Y-67046636D01*
X185733176Y-66983958D01*
X185630394Y-66899606D01*
X185546042Y-66796824D01*
X185483364Y-66679561D01*
X185444767Y-66552323D01*
X185431734Y-66420000D01*
X185444767Y-66287677D01*
X185483364Y-66160439D01*
X185546042Y-66043176D01*
X185630394Y-65940394D01*
X185733176Y-65856042D01*
X185850439Y-65793364D01*
X185977677Y-65754767D01*
X186076841Y-65745000D01*
X186143159Y-65745000D01*
X186242323Y-65754767D01*
X186242323Y-65754767D01*
G37*
G36*
X173100000Y-66320000D02*
X171500000Y-66320000D01*
X171500000Y-64720000D01*
X173100000Y-64720000D01*
X173100000Y-66320000D01*
X173100000Y-66320000D01*
G37*
G36*
X166060000Y-66320000D02*
X164460000Y-66320000D01*
X164460000Y-64720000D01*
X166060000Y-64720000D01*
X166060000Y-66320000D01*
X166060000Y-66320000D01*
G37*
G36*
X155400000Y-66320000D02*
X153800000Y-66320000D01*
X153800000Y-64720000D01*
X155400000Y-64720000D01*
X155400000Y-66320000D01*
X155400000Y-66320000D01*
G37*
G36*
X151800000Y-66320000D02*
X150200000Y-66320000D01*
X150200000Y-64720000D01*
X151800000Y-64720000D01*
X151800000Y-66320000D01*
X151800000Y-66320000D01*
G37*
G36*
X159010000Y-66320000D02*
X157410000Y-66320000D01*
X157410000Y-64720000D01*
X159010000Y-64720000D01*
X159010000Y-66320000D01*
X159010000Y-66320000D01*
G37*
G36*
X169560000Y-66320000D02*
X167960000Y-66320000D01*
X167960000Y-64720000D01*
X169560000Y-64720000D01*
X169560000Y-66320000D01*
X169560000Y-66320000D01*
G37*
G36*
X162560000Y-66320000D02*
X160960000Y-66320000D01*
X160960000Y-64720000D01*
X162560000Y-64720000D01*
X162560000Y-66320000D01*
X162560000Y-66320000D01*
G37*
G36*
X127010000Y-66320000D02*
X125410000Y-66320000D01*
X125410000Y-64720000D01*
X127010000Y-64720000D01*
X127010000Y-66320000D01*
X127010000Y-66320000D01*
G37*
G36*
X130810000Y-66320000D02*
X129210000Y-66320000D01*
X129210000Y-64720000D01*
X130810000Y-64720000D01*
X130810000Y-66320000D01*
X130810000Y-66320000D01*
G37*
G36*
X134560000Y-66320000D02*
X132960000Y-66320000D01*
X132960000Y-64720000D01*
X134560000Y-64720000D01*
X134560000Y-66320000D01*
X134560000Y-66320000D01*
G37*
G36*
X138310000Y-66320000D02*
X136710000Y-66320000D01*
X136710000Y-64720000D01*
X138310000Y-64720000D01*
X138310000Y-66320000D01*
X138310000Y-66320000D01*
G37*
G36*
X186242323Y-63754767D02*
X186369561Y-63793364D01*
X186486824Y-63856042D01*
X186589606Y-63940394D01*
X186673958Y-64043176D01*
X186736636Y-64160439D01*
X186775233Y-64287677D01*
X186788266Y-64420000D01*
X186775233Y-64552323D01*
X186736636Y-64679561D01*
X186673958Y-64796824D01*
X186589606Y-64899606D01*
X186486824Y-64983958D01*
X186369561Y-65046636D01*
X186242323Y-65085233D01*
X186143159Y-65095000D01*
X186076841Y-65095000D01*
X185977677Y-65085233D01*
X185850439Y-65046636D01*
X185733176Y-64983958D01*
X185630394Y-64899606D01*
X185546042Y-64796824D01*
X185483364Y-64679561D01*
X185444767Y-64552323D01*
X185431734Y-64420000D01*
X185444767Y-64287677D01*
X185483364Y-64160439D01*
X185546042Y-64043176D01*
X185630394Y-63940394D01*
X185733176Y-63856042D01*
X185850439Y-63793364D01*
X185977677Y-63754767D01*
X186076841Y-63745000D01*
X186143159Y-63745000D01*
X186242323Y-63754767D01*
X186242323Y-63754767D01*
G37*
G36*
X186785000Y-63095000D02*
X185435000Y-63095000D01*
X185435000Y-61745000D01*
X186785000Y-61745000D01*
X186785000Y-63095000D01*
X186785000Y-63095000D01*
G37*
M02*
